<svg xmlns="http://www.w3.org/2000/svg" aria-labelledby="rs-wordmark-title rs-wordmark-desc" role="img" viewBox="0 0 340 62"><title id="rs-wordmark-title">Rulestead</title><desc id="rs-wordmark-desc">Rulestead wordmark. Sora Bold lettering in ink blue; a thin Stead Blue routing trace continues collinear out of the R&apos;s diagonal leg, runs beneath the word, rises inside the final d&apos;s stem, and exits right to three stacked nodes — the top node lit Ember Copper, the routes not taken in muted Quarry.</desc><g transform="translate(0 -14)"><path fill="none" stroke="#3A6F8F" stroke-linecap="round" stroke-linejoin="round" stroke-width="3.2" d="m33.4 55 7.44 10.66Q44 70.2 49.5 70.2H311q7 0 7-7V29m0 0h12.5M318 40.5h12.5M318 52h12.5"/><g fill="#183247"><path d="M5.248 64V16.896h10.496V64ZM33.6 64 19.904 43.904h11.52L45.76 64ZM12.928 49.024v-8.256h11.52q2.304 0 4-.928t2.624-2.624T32 33.28t-.928-3.936-2.624-2.624-4-.928h-11.52v-8.896h10.688q5.824 0 10.112 1.76t6.592 5.216 2.304 8.704V33.6q0 5.184-2.336 8.608t-6.592 5.12-10.08 1.696Z"/><path d="M62.272 65.088q-6.08 0-9.344-3.936T49.664 49.28V28.928h10.24v20.864q0 2.816 1.6 4.48t4.288 1.664q2.752 0 4.48-1.728T72 49.536V28.928h10.24V64h-8.128V49.216h.704q0 5.312-1.376 8.864t-4.064 5.28-6.656 1.728Z"/><path d="M91.2 64V17.28h10.304V64Zm-4.16-39.168V17.28h14.464v7.552Z"/><path d="M126.016 65.216q-4.48 0-7.904-1.536t-5.696-4.128-3.456-5.824-1.184-6.624v-1.28q0-3.52 1.184-6.752t3.424-5.792 5.6-4.064 7.648-1.504q5.632 0 9.504 2.528t5.92 6.592 2.048 8.864v3.456h-31.04v-5.824h24.832l-3.328 2.688q0-3.136-.896-5.376t-2.656-3.424-4.384-1.184q-2.688 0-4.544 1.216t-2.816 3.552-.96 5.728q0 3.136.896 5.472t2.816 3.616 4.992 1.28q2.816 0 4.608-1.088t2.432-2.688h9.408q-.768 3.52-3.008 6.272t-5.632 4.288-7.808 1.536"/><path d="M162.24 65.088q-7.488 0-11.712-3.072t-4.48-8.64h9.088q.256 1.664 2.016 2.976t5.28 1.312q2.688 0 4.448-.928t1.76-2.656q0-1.536-1.344-2.464t-4.8-1.312l-2.752-.256q-6.336-.64-9.504-3.52t-3.168-7.36q0-3.712 1.856-6.208t5.152-3.776 7.52-1.28q6.784 0 10.944 2.976t4.352 8.608h-9.088q-.256-1.728-1.792-2.912t-4.544-1.184q-2.368 0-3.776.896t-1.408 2.432q0 1.472 1.216 2.24t3.968 1.088l2.752.256q6.464.704 10.048 3.584t3.584 7.744q0 3.52-1.92 6.112t-5.44 3.968-8.256 1.376"/><path d="M199.488 64.448q-5.312 0-8.576-1.312t-4.768-4.416-1.504-8.416V19.456h9.536v31.232q0 2.496 1.312 3.808t3.744 1.312h5.184v8.64Zm-20.16-28.032v-7.488h25.088v7.488Z"/><path d="M226.432 65.216q-4.48 0-7.904-1.536t-5.696-4.128-3.456-5.824-1.184-6.624v-1.28q0-3.52 1.184-6.752t3.424-5.792 5.6-4.064 7.648-1.504q5.632 0 9.504 2.528t5.92 6.592 2.048 8.864v3.456h-31.04v-5.824h24.832l-3.328 2.688q0-3.136-.896-5.376t-2.656-3.424-4.384-1.184q-2.688 0-4.544 1.216t-2.816 3.552-.96 5.728q0 3.136.896 5.472t2.816 3.616 4.992 1.28q2.816 0 4.608-1.088t2.432-2.688h9.408q-.768 3.52-3.008 6.272t-5.632 4.288-7.808 1.536"/><path d="M270.528 64V53.632H268.8V42.368q0-2.688-1.28-4.032t-4.096-1.344q-1.408 0-3.712.064t-4.736.192-4.416.256v-8.64q1.472-.128 3.456-.256t4.096-.192 3.968-.064q5.376 0 9.056 1.536t5.6 4.64 1.92 7.968V64Zm-11.2.896q-3.776 0-6.624-1.344t-4.448-3.872-1.6-6.048q0-3.84 1.984-6.304t5.568-3.648 8.256-1.184h7.488v5.696H262.4q-2.688 0-4.128 1.312t-1.44 3.552q0 2.112 1.44 3.424t4.128 1.312q1.728 0 3.104-.608t2.272-2.08 1.024-4.096l2.432 2.56q-.32 3.648-1.76 6.144t-3.968 3.84-6.176 1.344"/><path d="M300.864 65.152q-3.712 0-6.752-1.344t-5.28-3.744-3.424-5.664-1.184-7.04v-1.472q0-3.776 1.12-7.04t3.264-5.728 5.152-3.84 6.72-1.376q4.224 0 7.296 1.824t4.8 5.376 1.92 8.736l-2.688-2.496V17.28h10.304V64h-8.128V49.472h1.408q-.192 4.992-2.08 8.512t-5.088 5.344-7.36 1.824m2.56-8.576q2.368 0 4.32-1.056t3.136-3.104 1.184-4.928V45.12q0-2.816-1.216-4.736t-3.2-2.944-4.288-1.024q-2.56 0-4.576 1.312t-3.168 3.584-1.152 5.28q0 3.072 1.152 5.312t3.2 3.456 4.608 1.216"/></g><circle cx="330.5" cy="29" r="3.2" fill="#9b5931"/><circle cx="330.5" cy="40.5" r="3.2" fill="#C4CCD1"/><circle cx="330.5" cy="52" r="3.2" fill="#C4CCD1"/></g></svg>