<svg role="img" xmlns="http://www.w3.org/2000/svg" aria-labelledby="t d" viewBox="0 0 860 520"><title id="t">Rulestead — Palette Specimen</title><desc id="d">Brand color palette swatches with hex values and token names. Four rows: brand primaries, supporting palette, light neutral ramp, and dark neutral ramp.</desc><g aria-hidden="true"><path fill="#F5F7F6" d="M0 0h860v520H0z"/><text x="24" y="30" fill="#5c6b7a" font-family="Inter, ui-sans-serif, system-ui, sans-serif" font-size="11">Brand Primaries</text><rect width="112" height="48" x="24" y="40" fill="#3A6F8F" rx="6"/><text x="24" y="106" fill="#1a2332" font-family="IBM Plex Mono, ui-monospace, monospace" font-size="9">#3A6F8F</text><text x="24" y="117" fill="#5c6b7a" font-family="IBM Plex Mono, ui-monospace, monospace" font-size="8">stead-blue.base</text><rect width="112" height="48" x="152" y="40" fill="#9b5931" rx="6"/><text x="152" y="106" fill="#1a2332" font-family="IBM Plex Mono, ui-monospace, monospace" font-size="9">#9b5931</text><text x="152" y="117" fill="#5c6b7a" font-family="IBM Plex Mono, ui-monospace, monospace" font-size="8">ember-copper.base</text><rect width="112" height="48" x="280" y="40" fill="#183247" rx="6"/><text x="280" y="106" fill="#1a2332" font-family="IBM Plex Mono, ui-monospace, monospace" font-size="9">#183247</text><text x="280" y="117" fill="#5c6b7a" font-family="IBM Plex Mono, ui-monospace, monospace" font-size="8">ink-blue.base</text><rect width="112" height="48" x="408" y="40" fill="#24313D" rx="6"/><text x="408" y="106" fill="#1a2332" font-family="IBM Plex Mono, ui-monospace, monospace" font-size="9">#24313D</text><text x="408" y="117" fill="#5c6b7a" font-family="IBM Plex Mono, ui-monospace, monospace" font-size="8">slate-stead.base</text><rect width="112" height="48" x="536" y="40" fill="#0F1720" rx="6"/><text x="536" y="106" fill="#1a2332" font-family="IBM Plex Mono, ui-monospace, monospace" font-size="9">#0F1720</text><text x="536" y="117" fill="#5c6b7a" font-family="IBM Plex Mono, ui-monospace, monospace" font-size="8">basalt.base</text><rect width="112" height="48" x="664" y="40" fill="#D2A94E" rx="6"/><text x="664" y="106" fill="#1a2332" font-family="IBM Plex Mono, ui-monospace, monospace" font-size="9">#D2A94E</text><text x="664" y="117" fill="#5c6b7a" font-family="IBM Plex Mono, ui-monospace, monospace" font-size="8">signal-gold (decorative only)</text><text x="24" y="140" fill="#5c6b7a" font-family="Inter, ui-sans-serif, system-ui, sans-serif" font-size="11">Supporting Palette</text><rect width="112" height="48" x="24" y="150" fill="#606d66" rx="6"/><text x="24" y="216" fill="#1a2332" font-family="IBM Plex Mono, ui-monospace, monospace" font-size="9">#606d66</text><text x="24" y="227" fill="#5c6b7a" font-family="IBM Plex Mono, ui-monospace, monospace" font-size="8">moss-grey.canonical</text><rect width="112" height="48" x="152" y="150" fill="#E8ECE8" stroke="#d8dee6" rx="6"/><text x="152" y="216" fill="#1a2332" font-family="IBM Plex Mono, ui-monospace, monospace" font-size="9">#E8ECE8</text><text x="152" y="227" fill="#5c6b7a" font-family="IBM Plex Mono, ui-monospace, monospace" font-size="8">stone-mist.base</text><rect width="112" height="48" x="280" y="150" fill="#F5F7F6" stroke="#d8dee6" rx="6"/><text x="280" y="216" fill="#1a2332" font-family="IBM Plex Mono, ui-monospace, monospace" font-size="9">#F5F7F6</text><text x="280" y="227" fill="#5c6b7a" font-family="IBM Plex Mono, ui-monospace, monospace" font-size="8">rain-tint.base</text><rect width="112" height="48" x="408" y="150" fill="#C4CCD1" rx="6"/><text x="408" y="216" fill="#1a2332" font-family="IBM Plex Mono, ui-monospace, monospace" font-size="9">#C4CCD1</text><text x="408" y="227" fill="#5c6b7a" font-family="IBM Plex Mono, ui-monospace, monospace" font-size="8">quarry.base</text><rect width="112" height="48" x="536" y="150" fill="#2d7753" rx="6"/><text x="536" y="216" fill="#1a2332" font-family="IBM Plex Mono, ui-monospace, monospace" font-size="9">#2d7753</text><text x="536" y="227" fill="#5c6b7a" font-family="IBM Plex Mono, ui-monospace, monospace" font-size="8">success.canonical</text><rect width="112" height="48" x="664" y="150" fill="#8f601a" rx="6"/><text x="664" y="216" fill="#1a2332" font-family="IBM Plex Mono, ui-monospace, monospace" font-size="9">#8f601a</text><text x="664" y="227" fill="#5c6b7a" font-family="IBM Plex Mono, ui-monospace, monospace" font-size="8">warning.canonical</text><rect width="112" height="48" x="24" y="240" fill="#b04848" rx="6"/><text x="24" y="306" fill="#1a2332" font-family="IBM Plex Mono, ui-monospace, monospace" font-size="9">#b04848</text><text x="24" y="317" fill="#5c6b7a" font-family="IBM Plex Mono, ui-monospace, monospace" font-size="8">danger.canonical</text><rect width="112" height="48" x="152" y="240" fill="#356E8C" rx="6"/><text x="152" y="306" fill="#1a2332" font-family="IBM Plex Mono, ui-monospace, monospace" font-size="9">#356E8C</text><text x="152" y="317" fill="#5c6b7a" font-family="IBM Plex Mono, ui-monospace, monospace" font-size="8">info.base</text><text x="300" y="256" fill="#5c6b7a" font-family="Inter, ui-sans-serif, system-ui, sans-serif" font-size="11">Light Neutral Ramp</text><rect width="64" height="48" x="300" y="265" fill="#ffffff" stroke="#d8dee6" rx="6"/><text x="300" y="322" fill="#1a2332" font-family="IBM Plex Mono, ui-monospace, monospace" font-size="8">#ffffff</text><text x="300" y="332" fill="#5c6b7a" font-family="IBM Plex Mono, ui-monospace, monospace" font-size="7">neutral-0</text><rect width="64" height="48" x="372" y="265" fill="#f4f6f8" stroke="#d8dee6" rx="6"/><text x="372" y="322" fill="#1a2332" font-family="IBM Plex Mono, ui-monospace, monospace" font-size="8">#f4f6f8</text><text x="372" y="332" fill="#5c6b7a" font-family="IBM Plex Mono, ui-monospace, monospace" font-size="7">neutral-50</text><rect width="64" height="48" x="444" y="265" fill="#e7ebf0" rx="6"/><text x="444" y="322" fill="#1a2332" font-family="IBM Plex Mono, ui-monospace, monospace" font-size="8">#e7ebf0</text><text x="444" y="332" fill="#5c6b7a" font-family="IBM Plex Mono, ui-monospace, monospace" font-size="7">neutral-200</text><rect width="64" height="48" x="516" y="265" fill="#d8dee6" rx="6"/><text x="516" y="322" fill="#1a2332" font-family="IBM Plex Mono, ui-monospace, monospace" font-size="8">#d8dee6</text><text x="516" y="332" fill="#5c6b7a" font-family="IBM Plex Mono, ui-monospace, monospace" font-size="7">neutral-300</text><rect width="64" height="48" x="588" y="265" fill="#99a3af" rx="6"/><text x="588" y="322" fill="#1a2332" font-family="IBM Plex Mono, ui-monospace, monospace" font-size="8">#99a3af</text><text x="588" y="332" fill="#5c6b7a" font-family="IBM Plex Mono, ui-monospace, monospace" font-size="7">neutral-500</text><rect width="64" height="48" x="660" y="265" fill="#5c6b7a" rx="6"/><text x="660" y="322" fill="#1a2332" font-family="IBM Plex Mono, ui-monospace, monospace" font-size="8">#5c6b7a</text><text x="660" y="332" fill="#5c6b7a" font-family="IBM Plex Mono, ui-monospace, monospace" font-size="7">neutral-600</text><rect width="64" height="48" x="732" y="265" fill="#1a2332" rx="6"/><text x="732" y="322" fill="#1a2332" font-family="IBM Plex Mono, ui-monospace, monospace" font-size="8">#1a2332</text><text x="732" y="332" fill="#5c6b7a" font-family="IBM Plex Mono, ui-monospace, monospace" font-size="7">neutral-900</text><text x="24" y="358" fill="#5c6b7a" font-family="Inter, ui-sans-serif, system-ui, sans-serif" font-size="11">Dark Neutral Ramp</text><rect width="88" height="48" x="24" y="368" fill="#10161f" rx="6"/><text x="24" y="426" fill="#1a2332" font-family="IBM Plex Mono, ui-monospace, monospace" font-size="8">#10161f</text><text x="24" y="436" fill="#5c6b7a" font-family="IBM Plex Mono, ui-monospace, monospace" font-size="7">neutral-0 (dark)</text><rect width="88" height="48" x="120" y="368" fill="#19222e" rx="6"/><text x="120" y="426" fill="#1a2332" font-family="IBM Plex Mono, ui-monospace, monospace" font-size="8">#19222e</text><text x="120" y="436" fill="#5c6b7a" font-family="IBM Plex Mono, ui-monospace, monospace" font-size="7">neutral-50 (dark)</text><rect width="88" height="48" x="216" y="368" fill="#2e3d52" rx="6"/><text x="216" y="426" fill="#1a2332" font-family="IBM Plex Mono, ui-monospace, monospace" font-size="8">#2e3d52</text><text x="216" y="436" fill="#5c6b7a" font-family="IBM Plex Mono, ui-monospace, monospace" font-size="7">neutral-300 (dark)</text><rect width="88" height="48" x="312" y="368" fill="#7a8fa3" rx="6"/><text x="312" y="426" fill="#1a2332" font-family="IBM Plex Mono, ui-monospace, monospace" font-size="8">#7a8fa3</text><text x="312" y="436" fill="#5c6b7a" font-family="IBM Plex Mono, ui-monospace, monospace" font-size="7">neutral-500 (dark)</text><rect width="88" height="48" x="408" y="368" fill="#a8b9ca" rx="6"/><text x="408" y="426" fill="#1a2332" font-family="IBM Plex Mono, ui-monospace, monospace" font-size="8">#a8b9ca</text><text x="408" y="436" fill="#5c6b7a" font-family="IBM Plex Mono, ui-monospace, monospace" font-size="7">neutral-600 (dark)</text><rect width="88" height="48" x="504" y="368" fill="#e8edf3" rx="6"/><text x="504" y="426" fill="#1a2332" font-family="IBM Plex Mono, ui-monospace, monospace" font-size="8">#e8edf3</text><text x="504" y="436" fill="#5c6b7a" font-family="IBM Plex Mono, ui-monospace, monospace" font-size="7">neutral-900 (dark)</text><rect width="112" height="48" x="600" y="368" fill="#5885a0" rx="6"/><text x="600" y="426" fill="#1a2332" font-family="IBM Plex Mono, ui-monospace, monospace" font-size="8">#5885a0</text><text x="600" y="436" fill="#5c6b7a" font-family="IBM Plex Mono, ui-monospace, monospace" font-size="7">stead-blue.dark</text><rect width="112" height="48" x="720" y="368" fill="#ba6b3c" rx="6"/><text x="720" y="426" fill="#1a2332" font-family="IBM Plex Mono, ui-monospace, monospace" font-size="8">#ba6b3c</text><text x="720" y="436" fill="#5c6b7a" font-family="IBM Plex Mono, ui-monospace, monospace" font-size="7">ember-copper.dark</text></g></svg>