<svg xmlns="http://www.w3.org/2000/svg" aria-labelledby="t d" role="img" viewBox="0 0 480 96"><title id="t">Rulestead — README Header</title><desc id="d">README header mock: the Rulestead wordmark lockup with tagline &quot;Runtime decisions, made clear.&quot; — the routing trace grows collinear from the R&apos;s leg, runs beneath the word, and exits to three stacked nodes with the selected route lit Ember Copper.</desc><g aria-hidden="true"><path fill="#F5F7F6" d="M0 0h480v96H0z"/><g transform="matrix(.82 0 0 .82 24 -1.9)"><path fill="none" stroke="#3A6F8F" stroke-linecap="round" stroke-linejoin="round" stroke-width="3.2" d="m33.4 55 7.44 10.66Q44 70.2 49.5 70.2H311q7 0 7-7V29m0 0h12.5M318 40.5h12.5M318 52h12.5"/><g fill="#183247"><path d="M5.248 64V16.896h10.496V64ZM33.6 64 19.904 43.904h11.52L45.76 64ZM12.928 49.024v-8.256h11.52q2.304 0 4-.928t2.624-2.624T32 33.28t-.928-3.936-2.624-2.624-4-.928h-11.52v-8.896h10.688q5.824 0 10.112 1.76t6.592 5.216 2.304 8.704V33.6q0 5.184-2.336 8.608t-6.592 5.12-10.08 1.696Z"/><path d="M62.272 65.088q-6.08 0-9.344-3.936T49.664 49.28V28.928h10.24v20.864q0 2.816 1.6 4.48t4.288 1.664q2.752 0 4.48-1.728T72 49.536V28.928h10.24V64h-8.128V49.216h.704q0 5.312-1.376 8.864t-4.064 5.28-6.656 1.728Z"/><path d="M91.2 64V17.28h10.304V64Zm-4.16-39.168V17.28h14.464v7.552Z"/><path d="M126.016 65.216q-4.48 0-7.904-1.536t-5.696-4.128-3.456-5.824-1.184-6.624v-1.28q0-3.52 1.184-6.752t3.424-5.792 5.6-4.064 7.648-1.504q5.632 0 9.504 2.528t5.92 6.592 2.048 8.864v3.456h-31.04v-5.824h24.832l-3.328 2.688q0-3.136-.896-5.376t-2.656-3.424-4.384-1.184q-2.688 0-4.544 1.216t-2.816 3.552-.96 5.728q0 3.136.896 5.472t2.816 3.616 4.992 1.28q2.816 0 4.608-1.088t2.432-2.688h9.408q-.768 3.52-3.008 6.272t-5.632 4.288-7.808 1.536"/><path d="M162.24 65.088q-7.488 0-11.712-3.072t-4.48-8.64h9.088q.256 1.664 2.016 2.976t5.28 1.312q2.688 0 4.448-.928t1.76-2.656q0-1.536-1.344-2.464t-4.8-1.312l-2.752-.256q-6.336-.64-9.504-3.52t-3.168-7.36q0-3.712 1.856-6.208t5.152-3.776 7.52-1.28q6.784 0 10.944 2.976t4.352 8.608h-9.088q-.256-1.728-1.792-2.912t-4.544-1.184q-2.368 0-3.776.896t-1.408 2.432q0 1.472 1.216 2.24t3.968 1.088l2.752.256q6.464.704 10.048 3.584t3.584 7.744q0 3.52-1.92 6.112t-5.44 3.968-8.256 1.376"/><path d="M199.488 64.448q-5.312 0-8.576-1.312t-4.768-4.416-1.504-8.416V19.456h9.536v31.232q0 2.496 1.312 3.808t3.744 1.312h5.184v8.64Zm-20.16-28.032v-7.488h25.088v7.488Z"/><path d="M226.432 65.216q-4.48 0-7.904-1.536t-5.696-4.128-3.456-5.824-1.184-6.624v-1.28q0-3.52 1.184-6.752t3.424-5.792 5.6-4.064 7.648-1.504q5.632 0 9.504 2.528t5.92 6.592 2.048 8.864v3.456h-31.04v-5.824h24.832l-3.328 2.688q0-3.136-.896-5.376t-2.656-3.424-4.384-1.184q-2.688 0-4.544 1.216t-2.816 3.552-.96 5.728q0 3.136.896 5.472t2.816 3.616 4.992 1.28q2.816 0 4.608-1.088t2.432-2.688h9.408q-.768 3.52-3.008 6.272t-5.632 4.288-7.808 1.536"/><path d="M270.528 64V53.632H268.8V42.368q0-2.688-1.28-4.032t-4.096-1.344q-1.408 0-3.712.064t-4.736.192-4.416.256v-8.64q1.472-.128 3.456-.256t4.096-.192 3.968-.064q5.376 0 9.056 1.536t5.6 4.64 1.92 7.968V64Zm-11.2.896q-3.776 0-6.624-1.344t-4.448-3.872-1.6-6.048q0-3.84 1.984-6.304t5.568-3.648 8.256-1.184h7.488v5.696H262.4q-2.688 0-4.128 1.312t-1.44 3.552q0 2.112 1.44 3.424t4.128 1.312q1.728 0 3.104-.608t2.272-2.08 1.024-4.096l2.432 2.56q-.32 3.648-1.76 6.144t-3.968 3.84-6.176 1.344"/><path d="M300.864 65.152q-3.712 0-6.752-1.344t-5.28-3.744-3.424-5.664-1.184-7.04v-1.472q0-3.776 1.12-7.04t3.264-5.728 5.152-3.84 6.72-1.376q4.224 0 7.296 1.824t4.8 5.376 1.92 8.736l-2.688-2.496V17.28h10.304V64h-8.128V49.472h1.408q-.192 4.992-2.08 8.512t-5.088 5.344-7.36 1.824m2.56-8.576q2.368 0 4.32-1.056t3.136-3.104 1.184-4.928V45.12q0-2.816-1.216-4.736t-3.2-2.944-4.288-1.024q-2.56 0-4.576 1.312t-3.168 3.584-1.152 5.28q0 3.072 1.152 5.312t3.2 3.456 4.608 1.216"/></g><circle cx="330.5" cy="29" r="3.2" fill="#9b5931"/><circle cx="330.5" cy="40.5" r="3.2" fill="#C4CCD1"/><circle cx="330.5" cy="52" r="3.2" fill="#C4CCD1"/></g><g fill="#606d66"><path d="M28.303 82.56v-5.966h2.138q.689 0 1.15.237.46.24.689.664t.227.973q0 .552-.23.967t-.69.643-1.154.228h-1.606v-.78h1.518q.44 0 .711-.127t.399-.363.128-.568q0-.336-.128-.58-.13-.245-.401-.38-.273-.133-.717-.133h-1.121v5.185Zm3.392 0-1.447-2.695h1.013l1.47 2.695Z"/><path d="M35.483 82.616q-.456 0-.8-.192t-.535-.568q-.19-.378-.19-.93v-2.843h.88v2.735q0 .483.255.756.254.273.69.273.301 0 .535-.13t.37-.381.137-.603v-2.65h.88v4.477h-.84l-.003-1.097h.083q-.196.608-.572.88t-.889.273"/><path d="M40.182 79.909v2.651h-.88v-4.477h.84l.008 1.098h-.092q.196-.601.568-.878t.902-.276q.455 0 .796.193t.533.566.192.931v2.843h-.881v-2.735q0-.484-.253-.757-.251-.272-.692-.272-.297 0-.533.13t-.372.379-.136.604"/><path d="M46.558 78.083v.717h-2.427v-.716Zm-1.773-1.065h.88v4.333q0 .268.114.394.115.126.375.126.068 0 .18-.016t.192-.031l.156.704q-.14.048-.3.07t-.317.022q-.608 0-.944-.314t-.336-.883Z"/><path d="M47.845 82.56v-4.477h.88v4.477Zm.444-5.161q-.229 0-.39-.153-.162-.151-.162-.368 0-.22.162-.372.161-.153.39-.153t.392.153.164.372q0 .217-.164.37-.164.15-.392.15"/><path d="M50.321 82.56v-4.477h.837l.024 1.038h-.068q.096-.38.295-.625.201-.244.47-.366t.56-.123q.489 0 .79.303.3.302.403.843h-.112q.089-.37.304-.625.217-.257.523-.389t.655-.132q.396 0 .718.173t.51.512.19.849v3.019h-.883v-2.93q0-.45-.25-.65t-.59-.2q-.277 0-.477.116t-.308.322-.108.475v2.867h-.87v-2.987q0-.361-.23-.577t-.586-.216q-.245 0-.454.115-.21.114-.337.336t-.126.546v2.783Z"/><path d="M59.943 82.652q-.66 0-1.14-.284-.481-.284-.74-.801t-.258-1.214q0-.688.255-1.213.254-.524.718-.819t1.09-.294q.383 0 .74.126.356.127.64.395t.451.694.166 1.036v.312h-3.567v-.656h3.114l-.412.215q0-.412-.128-.726t-.378-.49-.626-.177q-.373 0-.638.18t-.401.475-.14.642v.449q0 .46.16.779.158.318.442.48.284.163.66.163.249 0 .449-.07t.346-.213.222-.35l.83.196q-.11.345-.363.609t-.633.41-.859.146"/><path d="M67.502 82.648q-.545 0-.97-.278-.423-.279-.664-.797t-.24-1.238q0-.73.244-1.247.244-.516.669-.789t.96-.272q.417 0 .672.139.254.137.398.322t.22.325h.048v-2.22h.88v5.967h-.856v-.701h-.072q-.076.144-.224.328t-.404.323q-.257.138-.661.138m.192-.749q.377 0 .634-.2.259-.2.393-.554t.134-.82q0-.468-.131-.814-.133-.347-.392-.541-.258-.193-.638-.193-.388 0-.646.204t-.39.554-.13.79q0 .445.133.802.132.356.392.564t.64.208"/><path d="M73.245 82.652q-.66 0-1.14-.284-.481-.284-.74-.801t-.258-1.214q0-.688.255-1.213.254-.524.718-.819t1.09-.294q.383 0 .74.126.356.127.64.395t.452.694.165 1.036v.312H71.6v-.656h3.115l-.413.215q0-.412-.128-.726t-.378-.49-.626-.177q-.373 0-.637.18t-.402.475-.14.642v.449q0 .46.16.779.158.318.442.48.284.163.66.163.249 0 .449-.07t.346-.213.222-.35l.83.196q-.11.345-.363.609t-.633.41-.859.146"/><path d="M78.423 82.652q-.631 0-1.1-.288-.468-.289-.729-.81-.26-.52-.26-1.208 0-.697.26-1.22.26-.522.729-.81t1.101-.289q.349 0 .653.09.303.09.55.261.246.17.417.417t.254.554l-.836.2q-.045-.172-.137-.314t-.222-.246q-.131-.105-.3-.16t-.375-.057q-.405 0-.67.214-.267.214-.397.571t-.13.789q0 .428.13.782t.397.567q.265.213.67.213.208 0 .38-.059.172-.057.308-.164t.23-.256q.09-.15.13-.33l.834.2q-.08.316-.252.566-.173.25-.419.426-.246.177-.555.269-.308.092-.66.092"/><path d="M81.685 82.56v-4.477h.881v4.477Zm.445-5.161q-.229 0-.39-.153-.163-.151-.163-.368 0-.22.162-.372.162-.153.39-.153t.393.153.164.372q0 .217-.164.37-.164.15-.392.15"/><path d="M85.767 82.652q-.485 0-.864-.14-.378-.14-.62-.414-.243-.274-.322-.671l.828-.172q.093.348.344.516.253.168.642.168.424 0 .676-.178t.252-.426q0-.217-.154-.357t-.474-.208l-.753-.172q-.625-.14-.929-.449-.304-.308-.304-.789 0-.4.224-.7t.612-.467.897-.166q.485 0 .828.14t.56.393.306.585l-.788.172q-.085-.236-.293-.415-.208-.178-.605-.178-.364 0-.608.164t-.244.417q0 .224.162.362t.53.222l.721.16q.62.14.921.44.3.301.3.77 0 .408-.234.722-.234.315-.648.493t-.963.178"/><path d="M88.987 82.56v-4.477h.881v4.477Zm.445-5.161q-.229 0-.39-.153-.163-.151-.163-.368 0-.22.163-.372.161-.153.39-.153t.392.153.164.372q0 .217-.164.37-.164.15-.392.15"/><path d="M93.345 82.652q-.629 0-1.099-.288-.47-.289-.731-.81-.26-.52-.26-1.208 0-.697.26-1.22.26-.522.73-.81.471-.289 1.1-.289.632 0 1.103.289t.73.81.261 1.22q0 .689-.26 1.209t-.731.809-1.103.288m0-.745q.408 0 .674-.214t.397-.569.13-.779q0-.428-.131-.786-.13-.359-.396-.573t-.674-.214q-.404 0-.67.214-.263.214-.393.571-.131.356-.131.789 0 .424.131.779.13.354.394.568.265.214.669.214"/><path d="M97.707 79.909v2.651h-.881v-4.477h.84l.009 1.098h-.092q.196-.601.568-.878t.901-.276q.456 0 .796.193t.533.566.192.931v2.843h-.88v-2.735q0-.484-.253-.757-.252-.272-.692-.272-.297 0-.533.13t-.372.379-.136.604"/><path d="M103.775 82.652q-.485 0-.864-.14-.378-.14-.62-.414-.243-.274-.322-.671l.828-.172q.093.348.344.516.253.168.642.168.424 0 .676-.178t.252-.426q0-.217-.154-.357t-.474-.208l-.753-.172q-.625-.14-.929-.449-.304-.308-.304-.789 0-.4.224-.7t.612-.467.897-.166q.485 0 .828.14t.56.393.306.585l-.788.172q-.085-.236-.293-.415-.208-.178-.605-.178-.364 0-.608.164t-.244.417q0 .224.162.362t.53.222l.721.16q.62.14.921.44.3.301.3.77 0 .408-.234.722-.234.315-.648.493t-.963.178"/><path d="m106.903 84.046.352-2.343h.95l-.66 2.343Z"/><path d="M112.488 82.56v-4.477h.836l.025 1.038h-.068q.096-.38.295-.625.2-.244.469-.366t.56-.123q.49 0 .79.303.3.302.404.843h-.112q.088-.37.304-.625.216-.257.523-.389.306-.132.654-.132.396 0 .719.173t.51.512.19.849v3.019h-.882v-2.93q0-.45-.25-.65t-.59-.2q-.277 0-.477.116t-.309.322-.108.475v2.867h-.869v-2.987q0-.361-.23-.577t-.587-.216q-.244 0-.454.115-.21.114-.336.336t-.126.546v2.783Z"/><path d="M121.434 82.66q-.425 0-.768-.158t-.546-.463q-.2-.303-.2-.744 0-.38.147-.625.146-.244.396-.388t.557-.216.622-.109l.645-.078q.248-.03.366-.1t.118-.226v-.025q0-.251-.095-.423t-.287-.267-.474-.093q-.292 0-.503.09-.21.09-.34.23t-.195.292l-.828-.216q.152-.4.436-.645.284-.244.653-.357.368-.112.76-.112.273 0 .577.065.304.064.573.232t.436.472.168.793v2.971h-.853v-.613h-.044q-.088.173-.26.337t-.434.27-.627.107m.197-.709q.36 0 .616-.14t.392-.372.137-.492v-.574q-.049.05-.182.087-.135.038-.307.068t-.332.05l-.264.032q-.249.032-.455.108t-.328.217q-.123.139-.123.372 0 .211.11.356.111.144.299.216t.436.072"/><path d="M126.913 82.648q-.544 0-.969-.278-.424-.279-.664-.797t-.24-1.238q0-.73.244-1.247.243-.516.668-.789t.961-.272q.417 0 .671.139.254.137.399.322t.22.325h.048v-2.22h.88v5.967h-.857v-.701h-.072q-.075.144-.224.328-.147.184-.404.323-.256.138-.66.138m.191-.749q.377 0 .635-.2t.393-.554.133-.82q0-.468-.13-.814-.134-.347-.392-.541-.258-.193-.639-.193-.388 0-.646.204t-.389.554-.13.79q0 .445.133.802.131.356.392.564t.64.208"/><path d="M132.656 82.652q-.66 0-1.14-.284-.481-.284-.74-.801t-.258-1.214q0-.688.254-1.213.254-.524.719-.819t1.09-.294q.383 0 .74.126.356.127.64.395t.451.694.166 1.036v.312h-3.567v-.656h3.114l-.412.215q0-.412-.128-.726t-.378-.49-.627-.177q-.373 0-.637.18t-.402.475-.139.642v.449q0 .46.159.779.158.318.443.48.284.163.66.163.248 0 .448-.07t.347-.213.222-.35l.829.196q-.108.345-.363.609t-.632.41-.86.146"/><path d="M140.431 82.652q-.633 0-1.101-.288-.469-.289-.73-.81-.26-.52-.26-1.208 0-.697.26-1.22.261-.522.73-.81t1.101-.289q.348 0 .653.09.303.09.55.261.246.17.416.417t.255.554l-.837.2q-.044-.172-.137-.314-.092-.143-.221-.246-.131-.105-.301-.16t-.374-.057q-.405 0-.67.214-.267.214-.398.571t-.13.789q0 .428.13.782t.397.567q.266.213.671.213.208 0 .38-.059.172-.057.308-.164t.229-.256q.092-.15.131-.33l.834.2q-.08.316-.253.566-.172.25-.418.426-.246.177-.555.269-.308.092-.66.092"/><path d="M144.573 76.594v5.966h-.88v-5.966Z"/><path d="M148.097 82.652q-.66 0-1.14-.284-.481-.284-.74-.801t-.258-1.214q0-.688.255-1.213.254-.524.718-.819t1.09-.294q.383 0 .74.126.356.127.64.395t.452.694.165 1.036v.312h-3.567v-.656h3.115l-.413.215q0-.412-.128-.726t-.378-.49-.626-.177q-.373 0-.637.18t-.402.475-.14.642v.449q0 .46.16.779.158.318.442.48.284.163.66.163.249 0 .449-.07t.346-.213.222-.35l.83.196q-.11.345-.363.609t-.632.41-.86.146"/><path d="M152.647 82.66q-.424 0-.768-.158t-.545-.463q-.2-.303-.2-.744 0-.38.146-.625.146-.244.396-.388t.557-.216.623-.109l.644-.078q.249-.03.367-.1t.118-.226v-.025q0-.251-.096-.423t-.287-.267-.474-.093q-.292 0-.503.09-.21.09-.34.23t-.194.292l-.829-.216q.152-.4.437-.645.283-.244.652-.357.368-.112.76-.112.274 0 .578.065.303.064.572.232t.436.472q.168.304.168.793v2.971h-.852v-.613h-.045q-.087.173-.26.337t-.434.27-.627.107m.197-.709q.36 0 .616-.14.257-.14.393-.372t.136-.492v-.574q-.049.05-.182.087-.135.038-.307.068t-.332.05l-.264.032q-.248.032-.455.108-.206.076-.328.217-.122.139-.122.372 0 .211.11.356.11.144.298.216.189.072.436.072"/><path d="M156.461 82.56v-4.477h.853v.721h.048q.124-.369.432-.576.309-.208.7-.208.085 0 .193.005.108.006.18.018v.84q-.048-.015-.184-.031t-.276-.016q-.304 0-.55.128-.243.128-.379.355t-.136.522v2.719Z"/><path d="M160.694 82.62q-.248 0-.42-.172t-.172-.417q0-.248.172-.418t.42-.17q.244 0 .417.17.172.17.172.418 0 .244-.172.417t-.416.172"/></g></g></svg>