<svg xmlns="http://www.w3.org/2000/svg" role="img" viewBox="2.25 13.90 320.30 54.32" aria-labelledby="rs-title rs-desc">
  <title id="rs-title">Rulestead</title>
  <desc id="rs-desc">Rulestead wordmark in Sora Bold; the counter of the R is recut so its negative space reads as a route that forks — one way in, two ways out.</desc>
  <path fill="#183247" transform="translate(0.000,64.000) scale(0.064,-0.064)" d="M82.0 0.0H246.0V234.0H365.52227783203125L525.0 0.0H715.0L528.5703125 261.3345031738281Q593.5701293945312 287.8357238769531 629.5 340.5Q666.0 394.0 666.0 475.0V491.0Q666.0 573.0 630.0 627.0Q594.0 681.0 527.0 708.5Q460.0 736.0 369.0 736.0H82.0ZM305.0 480.0Q420.0 448.0 465.0 417.0L478.9564208984375 408.005859375Q465.4939270019531 388.98724365234375 444.5 377.5Q418.0 363.0 382.0 363.0H246.0V597.0H382.0Q418.0 597.0 444.5 582.5Q465.4939270019531 571.0127563476562 478.9564208984375 551.994140625L465.0 543.0Q420.0 512.0 305.0 480.0Z"/>
  <path fill="#183247" transform="translate(45.440,64.000) scale(0.064,-0.064)" d="M258 -17Q163 -17 112.0 44.5Q61 106 61 230V548H221V222Q221 178 246.0 152.0Q271 126 313 126Q356 126 383.0 153.0Q410 180 410 226V548H570V0H443V231H454Q454 148 432.5 92.5Q411 37 369.0 10.0Q327 -17 265 -17Z"/>
  <path fill="#183247" transform="translate(85.440,64.000) scale(0.064,-0.064)" d="M80 0V730H241V0ZM15 612V730H241V612Z"/>
  <path fill="#183247" transform="translate(104.320,64.000) scale(0.064,-0.064)" d="M324 -19Q254 -19 200.5 5.0Q147 29 111.5 69.5Q76 110 57.5 160.5Q39 211 39 264V284Q39 339 57.5 389.5Q76 440 111.0 480.0Q146 520 198.5 543.5Q251 567 318 567Q406 567 466.5 527.5Q527 488 559.0 424.5Q591 361 591 286V232H106V323H494L442 281Q442 330 428.0 365.0Q414 400 386.5 418.5Q359 437 318 437Q276 437 247.0 418.0Q218 399 203.0 362.5Q188 326 188 273Q188 224 202.0 187.5Q216 151 246.0 131.0Q276 111 324 111Q368 111 396.0 128.0Q424 145 434 170H581Q569 115 534.0 72.0Q499 29 446.0 5.0Q393 -19 324 -19Z"/>
  <path fill="#183247" transform="translate(142.976,64.000) scale(0.064,-0.064)" d="M281 -17Q164 -17 98.0 31.0Q32 79 28 166H170Q174 140 201.5 119.5Q229 99 284 99Q326 99 353.5 113.5Q381 128 381 155Q381 179 360.0 193.5Q339 208 285 214L242 218Q143 228 93.5 273.0Q44 318 44 388Q44 446 73.0 485.0Q102 524 153.5 544.0Q205 564 271 564Q377 564 442.0 517.5Q507 471 510 383H368Q364 410 340.0 428.5Q316 447 269 447Q232 447 210.0 433.0Q188 419 188 395Q188 372 207.0 360.0Q226 348 269 343L312 339Q413 328 469.0 283.0Q525 238 525 162Q525 107 495.0 66.5Q465 26 410.0 4.5Q355 -17 281 -17Z"/>
  <path fill="#183247" transform="translate(177.280,64.000) scale(0.064,-0.064)" d="M322 -7Q239 -7 188.0 13.5Q137 34 113.5 82.5Q90 131 90 214V696H239V208Q239 169 259.5 148.5Q280 128 318 128H399V-7ZM7 431V548H399V431Z"/>
  <path fill="#183247" transform="translate(203.776,64.000) scale(0.064,-0.064)" d="M324 -19Q254 -19 200.5 5.0Q147 29 111.5 69.5Q76 110 57.5 160.5Q39 211 39 264V284Q39 339 57.5 389.5Q76 440 111.0 480.0Q146 520 198.5 543.5Q251 567 318 567Q406 567 466.5 527.5Q527 488 559.0 424.5Q591 361 591 286V232H106V323H494L442 281Q442 330 428.0 365.0Q414 400 386.5 418.5Q359 437 318 437Q276 437 247.0 418.0Q218 399 203.0 362.5Q188 326 188 273Q188 224 202.0 187.5Q216 151 246.0 131.0Q276 111 324 111Q368 111 396.0 128.0Q424 145 434 170H581Q569 115 534.0 72.0Q499 29 446.0 5.0Q393 -19 324 -19Z"/>
  <path fill="#183247" transform="translate(242.432,64.000) scale(0.064,-0.064)" d="M404 0V162H377V338Q377 380 357.0 401.0Q337 422 293 422Q271 422 235.0 421.0Q199 420 161.0 418.0Q123 416 92 414V549Q115 551 146.0 553.0Q177 555 210.0 556.0Q243 557 272 557Q356 557 413.5 533.0Q471 509 501.0 460.5Q531 412 531 336V0ZM229 -14Q170 -14 125.5 7.0Q81 28 56.0 67.5Q31 107 31 162Q31 222 62.0 260.5Q93 299 149.0 317.5Q205 336 278 336H395V247H277Q235 247 212.5 226.5Q190 206 190 171Q190 138 212.5 117.5Q235 97 277 97Q304 97 325.5 106.5Q347 116 361.0 139.0Q375 162 377 203L415 163Q410 106 387.5 67.0Q365 28 325.5 7.0Q286 -14 229 -14Z"/>
  <path fill="#183247" transform="translate(279.168,64.000) scale(0.064,-0.064)" d="M299 -18Q241 -18 193.5 3.0Q146 24 111.0 61.5Q76 99 57.5 150.0Q39 201 39 260V283Q39 342 56.5 393.0Q74 444 107.5 482.5Q141 521 188.0 542.5Q235 564 293 564Q359 564 407.0 535.5Q455 507 482.0 451.5Q509 396 512 315L470 354V730H631V0H504V227H526Q523 149 493.5 94.0Q464 39 414.0 10.5Q364 -18 299 -18ZM339 116Q376 116 406.5 132.5Q437 149 455.5 181.0Q474 213 474 258V295Q474 339 455.0 369.0Q436 399 405.0 415.0Q374 431 338 431Q298 431 266.5 410.5Q235 390 217.0 354.5Q199 319 199 272Q199 224 217.0 189.0Q235 154 267.0 135.0Q299 116 339 116Z"/>
  <circle fill="#9b5931" transform="translate(0.000,64.000) scale(0.064,-0.064)" cx="300.0" cy="480.0" r="24.0"/>
</svg>
