<svg xmlns="http://www.w3.org/2000/svg" role="img" viewBox="2.25 13.90 320.30 54.32" aria-labelledby="rs-title rs-desc">
  <title id="rs-title">Rulestead</title>
  <desc id="rs-desc">Rulestead wordmark in Sora Bold; the interior s and t fuse into a ligature whose crossbar extends left as a steady lintel beam ending in a copper node.</desc>
  <path fill="#183247" transform="translate(0.000,64.000) scale(0.064,-0.064)" d="M82 0V736H246V0ZM525 0 311 314H491L715 0ZM202 234V363H382Q418 363 444.5 377.5Q471 392 485.5 418.5Q500 445 500 480Q500 515 485.5 541.5Q471 568 444.5 582.5Q418 597 382 597H202V736H369Q460 736 527.0 708.5Q594 681 630.0 627.0Q666 573 666 491V475Q666 394 629.5 340.5Q593 287 526.5 260.5Q460 234 369 234Z"/>
  <path fill="#183247" transform="translate(45.440,64.000) scale(0.064,-0.064)" d="M258 -17Q163 -17 112.0 44.5Q61 106 61 230V548H221V222Q221 178 246.0 152.0Q271 126 313 126Q356 126 383.0 153.0Q410 180 410 226V548H570V0H443V231H454Q454 148 432.5 92.5Q411 37 369.0 10.0Q327 -17 265 -17Z"/>
  <path fill="#183247" transform="translate(85.440,64.000) scale(0.064,-0.064)" d="M80 0V730H241V0ZM15 612V730H241V612Z"/>
  <path fill="#183247" transform="translate(104.320,64.000) scale(0.064,-0.064)" d="M324 -19Q254 -19 200.5 5.0Q147 29 111.5 69.5Q76 110 57.5 160.5Q39 211 39 264V284Q39 339 57.5 389.5Q76 440 111.0 480.0Q146 520 198.5 543.5Q251 567 318 567Q406 567 466.5 527.5Q527 488 559.0 424.5Q591 361 591 286V232H106V323H494L442 281Q442 330 428.0 365.0Q414 400 386.5 418.5Q359 437 318 437Q276 437 247.0 418.0Q218 399 203.0 362.5Q188 326 188 273Q188 224 202.0 187.5Q216 151 246.0 131.0Q276 111 324 111Q368 111 396.0 128.0Q424 145 434 170H581Q569 115 534.0 72.0Q499 29 446.0 5.0Q393 -19 324 -19Z"/>
  <path fill="#183247" transform="translate(177.280,64.000) scale(0.064,-0.064)" d="M-255.0 -17.0Q-181.0 -17.0 -126.0 4.5Q-71.0 26.0 -41.0 66.5Q-11.0 107.0 -11.0 162.0Q-11.0 238.0 -67.0 283.0Q-123.0 328.0 -224.0 339.0L-267.0 343.0Q-310.0 348.0 -329.0 360.0Q-348.0 372.0 -348.0 395.0Q-348.0 417.32733154296875 -328.95965576171875 431.0H-199.47366333007812Q-197.68048095703125 429.7953796386719 -196.0 428.5Q-172.0 410.0 -168.0 383.0H-26.0Q-26.878896713256836 408.78094482421875 -33.079166412353516 431.0H90.0V214.0Q90.0 131.0 113.5 82.5Q137.0 34.0 188.0 13.5Q239.0 -7.0 322.0 -7.0H399.0V128.0H318.0Q280.0 128.0 259.5 148.5Q239.0 169.0 239.0 208.0V431.0H399.0V548.0H239.0V696.0H90.0V548.0H-495.0V431.0H-487.44244384765625Q-492.0 410.9930419921875 -492.0 388.0Q-492.0 318.0 -442.5 273.0Q-393.0 228.0 -294.0 218.0L-251.0 214.0Q-197.0 208.0 -176.0 193.5Q-155.0 179.0 -155.0 155.0Q-155.0 128.0 -182.5 113.5Q-210.0 99.0 -252.0 99.0Q-307.0 99.0 -334.5 119.5Q-362.0 140.0 -366.0 166.0H-508.0Q-504.0 79.0 -438.0 31.0Q-372.0 -17.0 -255.0 -17.0Z"/>
  <path fill="#183247" transform="translate(203.776,64.000) scale(0.064,-0.064)" d="M324 -19Q254 -19 200.5 5.0Q147 29 111.5 69.5Q76 110 57.5 160.5Q39 211 39 264V284Q39 339 57.5 389.5Q76 440 111.0 480.0Q146 520 198.5 543.5Q251 567 318 567Q406 567 466.5 527.5Q527 488 559.0 424.5Q591 361 591 286V232H106V323H494L442 281Q442 330 428.0 365.0Q414 400 386.5 418.5Q359 437 318 437Q276 437 247.0 418.0Q218 399 203.0 362.5Q188 326 188 273Q188 224 202.0 187.5Q216 151 246.0 131.0Q276 111 324 111Q368 111 396.0 128.0Q424 145 434 170H581Q569 115 534.0 72.0Q499 29 446.0 5.0Q393 -19 324 -19Z"/>
  <path fill="#183247" transform="translate(242.432,64.000) scale(0.064,-0.064)" d="M404 0V162H377V338Q377 380 357.0 401.0Q337 422 293 422Q271 422 235.0 421.0Q199 420 161.0 418.0Q123 416 92 414V549Q115 551 146.0 553.0Q177 555 210.0 556.0Q243 557 272 557Q356 557 413.5 533.0Q471 509 501.0 460.5Q531 412 531 336V0ZM229 -14Q170 -14 125.5 7.0Q81 28 56.0 67.5Q31 107 31 162Q31 222 62.0 260.5Q93 299 149.0 317.5Q205 336 278 336H395V247H277Q235 247 212.5 226.5Q190 206 190 171Q190 138 212.5 117.5Q235 97 277 97Q304 97 325.5 106.5Q347 116 361.0 139.0Q375 162 377 203L415 163Q410 106 387.5 67.0Q365 28 325.5 7.0Q286 -14 229 -14Z"/>
  <path fill="#183247" transform="translate(279.168,64.000) scale(0.064,-0.064)" d="M299 -18Q241 -18 193.5 3.0Q146 24 111.0 61.5Q76 99 57.5 150.0Q39 201 39 260V283Q39 342 56.5 393.0Q74 444 107.5 482.5Q141 521 188.0 542.5Q235 564 293 564Q359 564 407.0 535.5Q455 507 482.0 451.5Q509 396 512 315L470 354V730H631V0H504V227H526Q523 149 493.5 94.0Q464 39 414.0 10.5Q364 -18 299 -18ZM339 116Q376 116 406.5 132.5Q437 149 455.5 181.0Q474 213 474 258V295Q474 339 455.0 369.0Q436 399 405.0 415.0Q374 431 338 431Q298 431 266.5 410.5Q235 390 217.0 354.5Q199 319 199 272Q199 224 217.0 189.0Q235 154 267.0 135.0Q299 116 339 116Z"/>
  <circle fill="#9b5931" transform="translate(177.280,64.000) scale(0.064,-0.064)" cx="-495.0" cy="489.5" r="58.5"/>
</svg>
