<svg xmlns="http://www.w3.org/2000/svg" viewBox="4.1 18.6 295.7 46.9" role="img" aria-labelledby="t d">
  <title id="t">Rulestead</title>
  <desc id="d">Rulestead wordmark in Space Grotesk Bold; the R leg is recut into a route-step with a single copper node at the turn.</desc>
  <g fill="#183247">
    <path transform="translate(0.000,64.000) scale(0.064000,-0.064000)" d="M73 0V700H367Q432 700 481.5 677.5Q531 655 558.5 613.0Q586 571 586 513V502Q586 436 554.5 396.5Q523 357 478 341V325Q516 323 539.0 299.5Q562 276 562 232V120H637V0H528V80H453V217Q453 244 439.0 260.0Q425 276 394 276H181V0ZM181 374H355Q413 374 445.0 403.5Q477 433 477 484V492Q477 543 445.5 572.5Q414 602 355 602H181Z"/>
    <path transform="translate(39.488,64.000) scale(0.064000,-0.064000)" d="M265 -9Q209 -9 165.0 16.0Q121 41 96.0 87.0Q71 133 71 197V493H174V204Q174 140 206.0 109.5Q238 79 295 79Q358 79 396.5 121.5Q435 164 435 244V493H538V0H437V74H421Q407 44 371.0 17.5Q335 -9 265 -9Z"/>
    <path transform="translate(77.824,64.000) scale(0.064000,-0.064000)" d="M76 0V700H179V0Z"/>
    <path transform="translate(93.248,64.000) scale(0.064000,-0.064000)" d="M302 -14Q227 -14 171.0 17.5Q115 49 83.5 106.5Q52 164 52 240V252Q52 329 83.0 386.5Q114 444 169.5 475.5Q225 507 298 507Q369 507 422.5 475.5Q476 444 506.0 388.0Q536 332 536 257V218H157Q159 153 200.5 114.5Q242 76 304 76Q362 76 391.5 102.0Q421 128 437 162L522 118Q508 90 481.5 59.0Q455 28 412.0 7.0Q369 -14 302 -14ZM158 297H431Q427 353 391.0 384.5Q355 416 297 416Q239 416 202.5 384.5Q166 353 158 297Z"/>
    <path transform="translate(129.664,64.000) scale(0.064000,-0.064000)" d="M278 -14Q184 -14 122.0 28.0Q60 70 46 155L142 178Q150 137 169.0 113.0Q188 89 216.5 79.0Q245 69 278 69Q327 69 353.5 88.0Q380 107 380 137Q380 167 355.0 181.0Q330 195 281 204L247 210Q197 219 156.0 236.0Q115 253 91.0 283.0Q67 313 67 360Q67 430 119.0 468.5Q171 507 257 507Q340 507 393.5 469.5Q447 432 463 368L367 341Q358 386 329.0 404.5Q300 423 257 423Q215 423 191.0 407.5Q167 392 167 364Q167 334 190.5 320.0Q214 306 254 299L289 293Q342 284 386.0 268.0Q430 252 455.5 222.0Q481 192 481 142Q481 68 426.0 27.0Q371 -14 278 -14Z"/>
    <path transform="translate(162.304,64.000) scale(0.064000,-0.064000)" d="M261 0Q216 0 189.5 27.0Q163 54 163 99V406H27V493H163V656H266V493H413V406H266V117Q266 87 294 87H397V0Z"/>
    <path transform="translate(190.656,64.000) scale(0.064000,-0.064000)" d="M302 -14Q227 -14 171.0 17.5Q115 49 83.5 106.5Q52 164 52 240V252Q52 329 83.0 386.5Q114 444 169.5 475.5Q225 507 298 507Q369 507 422.5 475.5Q476 444 506.0 388.0Q536 332 536 257V218H157Q159 153 200.5 114.5Q242 76 304 76Q362 76 391.5 102.0Q421 128 437 162L522 118Q508 90 481.5 59.0Q455 28 412.0 7.0Q369 -14 302 -14ZM158 297H431Q427 353 391.0 384.5Q355 416 297 416Q239 416 202.5 384.5Q166 353 158 297Z"/>
    <path transform="translate(227.072,64.000) scale(0.064000,-0.064000)" d="M229 -14Q176 -14 134.5 4.0Q93 22 68.5 57.0Q44 92 44 142Q44 193 68.5 226.5Q93 260 135.5 277.0Q178 294 232 294H382V326Q382 369 356.0 395.0Q330 421 276 421Q223 421 195.0 396.0Q167 371 158 331L62 362Q74 402 100.5 434.5Q127 467 171.0 487.0Q215 507 277 507Q373 507 428.0 458.0Q483 409 483 319V116Q483 86 511 86H553V0H476Q441 0 419.0 18.0Q397 36 397 67V70H382Q374 55 358.0 35.0Q342 15 311.0 0.5Q280 -14 229 -14ZM244 71Q306 71 344.0 106.5Q382 142 382 204V214H238Q197 214 172.0 196.5Q147 179 147 145Q147 111 173.0 91.0Q199 71 244 71Z"/>
    <path transform="translate(263.040,64.000) scale(0.064000,-0.064000)" d="M280 -14Q219 -14 167.0 16.0Q115 46 83.5 102.5Q52 159 52 239V254Q52 333 83.0 390.0Q114 447 166.0 477.0Q218 507 280 507Q328 507 360.5 495.0Q393 483 414.0 464.5Q435 446 446 426H462V700H565V0H464V70H448Q429 38 390.5 12.0Q352 -14 280 -14ZM309 76Q376 76 419.5 119.0Q463 162 463 242V251Q463 330 420.0 373.0Q377 416 309 416Q243 416 199.5 373.0Q156 330 156 251V242Q156 162 199.5 119.0Q243 76 309 76Z"/>
  </g>
  <circle fill="#9b5931" cx="31.296" cy="62.080" r="1.920"/>
</svg>
