<svg xmlns="http://www.w3.org/2000/svg" viewBox="4.3 17.1 288.2 48.2" role="img" aria-labelledby="t d">
  <title id="t">Rulestead</title>
  <desc id="d">Rulestead wordmark in Archivo; Rule set bold, stead set medium — the weight shift is the seam between hard logic and calm home.</desc>
  <g fill="#183247">
    <path transform="translate(0.000,64.000) scale(0.064000,-0.064000)" d="M76 0V686H452Q528 686 578.5 659.0Q629 632 654.0 583.5Q679 535 679 472Q679 405 649.0 353.5Q619 302 562 275L702 0H537L416 250H225V0ZM225 368H432Q477 368 502.0 395.5Q527 423 527 470Q527 500 516.0 521.5Q505 543 484.0 554.0Q463 565 432 565H225Z"/>
    <path transform="translate(45.760,64.000) scale(0.064000,-0.064000)" d="M234 -12Q154 -12 107.0 32.0Q60 76 60 174V526H199V197Q199 171 205.0 153.5Q211 136 222.5 125.0Q234 114 251.0 109.0Q268 104 289 104Q320 104 345.0 119.0Q370 134 384.0 160.5Q398 187 398 220V526H537V0H423L413 72H406Q387 47 361.5 28.0Q336 9 304.0 -1.5Q272 -12 234 -12Z"/>
    <path transform="translate(83.264,64.000) scale(0.064000,-0.064000)" d="M64 0V723H203V0Z"/>
    <path transform="translate(99.392,64.000) scale(0.064000,-0.064000)" d="M303 -12Q216 -12 157.0 17.5Q98 47 68.0 108.0Q38 169 38 263Q38 358 68.0 418.5Q98 479 156.5 508.5Q215 538 300 538Q380 538 435.0 509.5Q490 481 518.0 421.5Q546 362 546 268V232H179Q181 186 193.5 154.0Q206 122 232.5 106.5Q259 91 303 91Q327 91 346.5 97.0Q366 103 380.0 115.0Q394 127 402.0 145.0Q410 163 410 186H546Q546 136 528.0 99.0Q510 62 478.0 37.5Q446 13 401.5 0.5Q357 -12 303 -12ZM181 320H403Q403 350 395.5 372.0Q388 394 375.0 408.0Q362 422 343.5 428.5Q325 435 302 435Q264 435 238.5 422.5Q213 410 199.5 384.5Q186 359 181 320Z"/>
  </g>
  <g fill="#183247" transform="translate(135.808,0)">
    <path transform="translate(0.000,64.000) scale(0.064000,-0.064000)" d="M270 -12Q213 -12 170.0 0.5Q127 13 98.0 35.0Q69 57 54.5 86.5Q40 116 40 151Q40 156 40.5 160.0Q41 164 41 166H161Q161 164 161.0 162.0Q161 160 161 158Q162 131 178.0 114.5Q194 98 220.0 91.0Q246 84 275 84Q301 84 324.5 89.5Q348 95 363.5 107.5Q379 120 379 140Q379 166 359.0 180.0Q339 194 306.5 203.0Q274 212 237 222Q204 231 171.0 242.0Q138 253 111.5 270.0Q85 287 68.5 314.0Q52 341 52 381Q52 420 69.0 449.0Q86 478 116.0 497.5Q146 517 187.0 527.0Q228 537 276 537Q323 537 361.5 527.0Q400 517 428.5 498.5Q457 480 472.5 453.5Q488 427 488 395Q488 388 487.5 381.0Q487 374 487 373H368V380Q368 399 356.5 412.5Q345 426 323.5 434.0Q302 442 270 442Q246 442 228.0 438.0Q210 434 198.5 427.0Q187 420 181.0 411.0Q175 402 175 391Q175 372 190.0 361.0Q205 350 230.5 342.0Q256 334 286 325Q322 315 360.0 304.5Q398 294 430.5 278.0Q463 262 483.0 233.0Q503 204 503 156Q503 110 485.5 77.5Q468 45 436.5 25.5Q405 6 362.5 -3.0Q320 -12 270 -12Z"/>
    <path transform="translate(33.664,64.000) scale(0.064000,-0.064000)" d="M204 -12Q155 -12 127.0 7.5Q99 27 87.5 57.5Q76 88 76 120V426H13V526H79L101 673H198V526H289V426H198V132Q198 111 209.0 99.5Q220 88 242 88H289V4Q279 0 264.5 -3.5Q250 -7 234.0 -9.5Q218 -12 204 -12Z"/>
    <path transform="translate(52.800,64.000) scale(0.064000,-0.064000)" d="M291 -12Q207 -12 151.0 17.5Q95 47 67.0 108.0Q39 169 39 263Q39 358 67.0 418.5Q95 479 151.0 508.5Q207 538 291 538Q367 538 418.5 509.5Q470 481 496.0 422.0Q522 363 522 269V233H164Q166 184 179.0 150.5Q192 117 219.5 100.5Q247 84 292 84Q315 84 335.0 90.0Q355 96 370.0 108.5Q385 121 393.5 140.0Q402 159 402 184H522Q522 134 504.5 97.0Q487 60 455.5 36.0Q424 12 382.0 0.0Q340 -12 291 -12ZM166 319H395Q395 352 387.5 375.0Q380 398 366.5 413.0Q353 428 334.0 434.5Q315 441 291 441Q252 441 225.5 428.0Q199 415 185.0 388.0Q171 361 166 319Z"/>
    <path transform="translate(87.744,64.000) scale(0.064000,-0.064000)" d="M200 -12Q178 -12 149.5 -6.5Q121 -1 94.5 14.0Q68 29 51.0 58.5Q34 88 34 136Q34 190 58.0 225.5Q82 261 125.5 281.5Q169 302 229.5 310.5Q290 319 362 319V362Q362 385 355.0 403.0Q348 421 329.5 431.5Q311 442 274 442Q237 442 216.0 433.0Q195 424 187.0 411.0Q179 398 179 384V370H61Q60 375 60.0 380.0Q60 385 60 392Q60 437 87.0 470.0Q114 503 162.0 520.5Q210 538 273 538Q345 538 391.5 518.0Q438 498 461.0 461.0Q484 424 484 371V123Q484 104 495.0 96.0Q506 88 519 88H551V4Q541 0 522.0 -5.5Q503 -11 475 -11Q449 -11 428.5 -2.5Q408 6 394.0 22.0Q380 38 374 60H368Q351 39 327.5 22.5Q304 6 272.5 -3.0Q241 -12 200 -12ZM237 88Q267 88 290.5 97.0Q314 106 329.5 122.0Q345 138 353.5 161.0Q362 184 362 211V235Q307 235 260.5 228.0Q214 221 186.5 202.0Q159 183 159 148Q159 130 167.5 116.5Q176 103 193.5 95.5Q211 88 237 88Z"/>
    <path transform="translate(122.368,64.000) scale(0.064000,-0.064000)" d="M248 -12Q184 -12 137.0 17.0Q90 46 64.5 107.0Q39 168 39 264Q39 359 65.0 419.5Q91 480 137.0 509.0Q183 538 241 538Q277 538 307.0 530.0Q337 522 360.0 505.5Q383 489 399 465H405V723H527V0H426L416 70H409Q384 29 341.5 8.5Q299 -12 248 -12ZM286 93Q328 93 354.0 112.0Q380 131 392.5 167.0Q405 203 405 255V268Q405 307 398.0 338.0Q391 369 376.5 390.0Q362 411 339.5 422.0Q317 433 286 433Q241 433 214.5 415.5Q188 398 176.5 361.5Q165 325 165 269V255Q165 200 176.5 164.0Q188 128 214.5 110.5Q241 93 286 93Z"/>
  </g>
</svg>
