<svg xmlns="http://www.w3.org/2000/svg" aria-labelledby="rs-mark-mono-title rs-mark-mono-desc" role="img" viewBox="0 0 62 62"><title id="rs-mark-mono-title">Rulestead mark</title><desc id="rs-mark-mono-desc">Rulestead d-sigil mark, monochrome: single-color crop of the wordmark&apos;s final d with the routing trace and three exit routes; the selected route&apos;s node is filled, the routes not taken are hollow rings, so the hierarchy survives without color.</desc><path fill="none" stroke="#0F1720" stroke-linecap="round" stroke-linejoin="round" stroke-width="3.2" d="M-4 56.2h37q7 0 7-7V15m0 0h12.5M40 26.5h12.5M40 38h12.5"/><path fill="#0F1720" d="M22.864 51.152q-3.712 0-6.752-1.344t-5.28-3.744T7.408 40.4t-1.184-7.04v-1.472q0-3.776 1.12-7.04t3.264-5.728 5.152-3.84 6.72-1.376q4.224 0 7.296 1.824t4.8 5.376 1.92 8.736l-2.688-2.496V3.28h10.304V50h-8.128V35.472h1.408q-.192 4.992-2.08 8.512t-5.088 5.344-7.36 1.824m2.56-8.576q2.368 0 4.32-1.056t3.136-3.104 1.184-4.928V31.12q0-2.816-1.216-4.736t-3.2-2.944-4.288-1.024q-2.56 0-4.576 1.312t-3.168 3.584-1.152 5.28q0 3.072 1.152 5.312t3.2 3.456 4.608 1.216"/><circle cx="52.5" cy="15" r="3.2" fill="#0F1720"/><circle cx="52.5" cy="26.5" r="2.5" fill="none" stroke="#0F1720" stroke-width="1.4"/><circle cx="52.5" cy="38" r="2.5" fill="none" stroke="#0F1720" stroke-width="1.4"/></svg>