<svg xmlns="http://www.w3.org/2000/svg" width="1200" height="630" aria-labelledby="rs-social-title rs-social-desc" role="img" viewBox="0 0 1200 630"><title id="rs-social-title">Rulestead — Runtime decisions, made clear.</title><desc id="rs-social-desc">Rulestead social card. The Rulestead wordmark on a Basalt field: a routing trace grows collinear from the R&apos;s leg, runs beneath the word, rises through the final d&apos;s stem, and exits to three stacked nodes with the selected route lit Ember Copper. Tagline: Runtime decisions, made clear.</desc><g aria-hidden="true"><path fill="#0F1720" d="M0 0h1200v630H0z"/><g transform="translate(134 147.8)scale(2.75)"><path fill="none" stroke="#5885a0" stroke-linecap="round" stroke-linejoin="round" stroke-width="3.2" d="m33.4 55 7.44 10.66Q44 70.2 49.5 70.2H311q7 0 7-7V29m0 0h12.5M318 40.5h12.5M318 52h12.5"/><g fill="#e8edf3"><path d="M5.248 64V16.896h10.496V64ZM33.6 64 19.904 43.904h11.52L45.76 64ZM12.928 49.024v-8.256h11.52q2.304 0 4-.928t2.624-2.624T32 33.28t-.928-3.936-2.624-2.624-4-.928h-11.52v-8.896h10.688q5.824 0 10.112 1.76t6.592 5.216 2.304 8.704V33.6q0 5.184-2.336 8.608t-6.592 5.12-10.08 1.696Z"/><path d="M62.272 65.088q-6.08 0-9.344-3.936T49.664 49.28V28.928h10.24v20.864q0 2.816 1.6 4.48t4.288 1.664q2.752 0 4.48-1.728T72 49.536V28.928h10.24V64h-8.128V49.216h.704q0 5.312-1.376 8.864t-4.064 5.28-6.656 1.728Z"/><path d="M91.2 64V17.28h10.304V64Zm-4.16-39.168V17.28h14.464v7.552Z"/><path d="M126.016 65.216q-4.48 0-7.904-1.536t-5.696-4.128-3.456-5.824-1.184-6.624v-1.28q0-3.52 1.184-6.752t3.424-5.792 5.6-4.064 7.648-1.504q5.632 0 9.504 2.528t5.92 6.592 2.048 8.864v3.456h-31.04v-5.824h24.832l-3.328 2.688q0-3.136-.896-5.376t-2.656-3.424-4.384-1.184q-2.688 0-4.544 1.216t-2.816 3.552-.96 5.728q0 3.136.896 5.472t2.816 3.616 4.992 1.28q2.816 0 4.608-1.088t2.432-2.688h9.408q-.768 3.52-3.008 6.272t-5.632 4.288-7.808 1.536"/><path d="M162.24 65.088q-7.488 0-11.712-3.072t-4.48-8.64h9.088q.256 1.664 2.016 2.976t5.28 1.312q2.688 0 4.448-.928t1.76-2.656q0-1.536-1.344-2.464t-4.8-1.312l-2.752-.256q-6.336-.64-9.504-3.52t-3.168-7.36q0-3.712 1.856-6.208t5.152-3.776 7.52-1.28q6.784 0 10.944 2.976t4.352 8.608h-9.088q-.256-1.728-1.792-2.912t-4.544-1.184q-2.368 0-3.776.896t-1.408 2.432q0 1.472 1.216 2.24t3.968 1.088l2.752.256q6.464.704 10.048 3.584t3.584 7.744q0 3.52-1.92 6.112t-5.44 3.968-8.256 1.376"/><path d="M199.488 64.448q-5.312 0-8.576-1.312t-4.768-4.416-1.504-8.416V19.456h9.536v31.232q0 2.496 1.312 3.808t3.744 1.312h5.184v8.64Zm-20.16-28.032v-7.488h25.088v7.488Z"/><path d="M226.432 65.216q-4.48 0-7.904-1.536t-5.696-4.128-3.456-5.824-1.184-6.624v-1.28q0-3.52 1.184-6.752t3.424-5.792 5.6-4.064 7.648-1.504q5.632 0 9.504 2.528t5.92 6.592 2.048 8.864v3.456h-31.04v-5.824h24.832l-3.328 2.688q0-3.136-.896-5.376t-2.656-3.424-4.384-1.184q-2.688 0-4.544 1.216t-2.816 3.552-.96 5.728q0 3.136.896 5.472t2.816 3.616 4.992 1.28q2.816 0 4.608-1.088t2.432-2.688h9.408q-.768 3.52-3.008 6.272t-5.632 4.288-7.808 1.536"/><path d="M270.528 64V53.632H268.8V42.368q0-2.688-1.28-4.032t-4.096-1.344q-1.408 0-3.712.064t-4.736.192-4.416.256v-8.64q1.472-.128 3.456-.256t4.096-.192 3.968-.064q5.376 0 9.056 1.536t5.6 4.64 1.92 7.968V64Zm-11.2.896q-3.776 0-6.624-1.344t-4.448-3.872-1.6-6.048q0-3.84 1.984-6.304t5.568-3.648 8.256-1.184h7.488v5.696H262.4q-2.688 0-4.128 1.312t-1.44 3.552q0 2.112 1.44 3.424t4.128 1.312q1.728 0 3.104-.608t2.272-2.08 1.024-4.096l2.432 2.56q-.32 3.648-1.76 6.144t-3.968 3.84-6.176 1.344"/><path d="M300.864 65.152q-3.712 0-6.752-1.344t-5.28-3.744-3.424-5.664-1.184-7.04v-1.472q0-3.776 1.12-7.04t3.264-5.728 5.152-3.84 6.72-1.376q4.224 0 7.296 1.824t4.8 5.376 1.92 8.736l-2.688-2.496V17.28h10.304V64h-8.128V49.472h1.408q-.192 4.992-2.08 8.512t-5.088 5.344-7.36 1.824m2.56-8.576q2.368 0 4.32-1.056t3.136-3.104 1.184-4.928V45.12q0-2.816-1.216-4.736t-3.2-2.944-4.288-1.024q-2.56 0-4.576 1.312t-3.168 3.584-1.152 5.28q0 3.072 1.152 5.312t3.2 3.456 4.608 1.216"/></g><circle cx="330.5" cy="29" r="3.2" fill="#9b5931"/><circle cx="330.5" cy="40.5" r="3.2" fill="#3d4a55"/><circle cx="330.5" cy="52" r="3.2" fill="#3d4a55"/></g><g fill="#e8edf3" opacity=".7"><path d="M148.431 431.05v-20.008h7.17q2.31 0 3.855.799t2.31 2.222.765 3.263q0 1.853-.772 3.243t-2.317 2.155-3.867.766h-5.385v-2.619h5.09q1.477 0 2.383-.423t1.336-1.215.43-1.907q0-1.128-.43-1.947t-1.343-1.269-2.403-.45h-3.76v17.39Zm11.374 0-4.848-9.037h3.398l4.928 9.037Z"/><path d="M172.511 431.238q-1.53 0-2.685-.645-1.155-.644-1.793-1.906t-.638-3.116v-9.534h2.954v9.172q0 1.625.853 2.538t2.316.913q1.008 0 1.793-.437.786-.436 1.242-1.275.457-.84.457-2.021v-8.89h2.954v15.013h-2.82l-.013-3.68h.282q-.658 2.042-1.92 2.955t-2.982.913"/><path d="M188.268 422.16v8.89h-2.954v-15.013h2.82l.027 3.68h-.309q.658-2.015 1.907-2.941 1.249-.927 3.021-.927 1.531 0 2.672.645 1.142.644 1.786 1.9t.645 3.122v9.534h-2.954v-9.171q0-1.625-.846-2.538-.846-.914-2.323-.914-.994 0-1.786.437-.793.436-1.25 1.269-.456.832-.456 2.027"/><path d="M209.652 416.037v2.404h-8.138v-2.404Zm-5.949-3.572h2.954v14.53q0 .9.383 1.322t1.256.423q.228 0 .604-.053.376-.054.644-.108l.524 2.364q-.47.16-1.007.235-.537.073-1.06.073-2.042 0-3.17-1.054t-1.128-2.96Z"/><path d="M213.966 431.05v-15.013h2.955v15.013Zm1.49-17.309q-.764 0-1.308-.51t-.544-1.236q0-.738.544-1.249.544-.51 1.309-.51t1.316.51.55 1.25q0 .724-.55 1.235-.55.51-1.316.51"/><path d="M222.271 431.05v-15.013h2.807l.08 3.478h-.228q.322-1.276.994-2.095t1.571-1.228 1.88-.41q1.638 0 2.645 1.014t1.357 2.827H233q.295-1.236 1.02-2.095t1.752-1.303q1.028-.443 2.196-.443 1.33 0 2.41.577 1.081.578 1.712 1.72.632 1.14.632 2.846v10.125h-2.955v-9.83q0-1.503-.839-2.175-.84-.671-1.98-.671-.927 0-1.599.39-.67.389-1.033 1.08t-.363 1.591v9.615h-2.914v-10.017q0-1.209-.772-1.934t-1.967-.725q-.82 0-1.524.382-.705.383-1.128 1.128-.423.746-.423 1.833v9.333Z"/><path d="M254.542 431.359q-2.216 0-3.828-.954-1.61-.953-2.477-2.685t-.866-4.069q0-2.31.853-4.069.852-1.759 2.41-2.746t3.652-.987q1.29 0 2.485.423t2.148 1.323 1.51 2.33q.558 1.43.558 3.47v1.048h-11.964v-2.202h10.447l-1.383.725q0-1.383-.43-2.437t-1.27-1.645q-.838-.59-2.1-.59-1.25 0-2.136.603-.886.605-1.35 1.592-.462.987-.462 2.155v1.504q0 1.544.53 2.612.53 1.067 1.484 1.611.953.544 2.215.544.833 0 1.504-.235.672-.235 1.162-.712.49-.476.745-1.175l2.78.658q-.363 1.155-1.215 2.041-.853.887-2.122 1.377-1.27.49-2.88.49"/><path d="M279.89 431.345q-1.826 0-3.25-.933t-2.228-2.672-.806-4.156q0-2.444.819-4.176.82-1.733 2.243-2.646t3.222-.913q1.397 0 2.25.463.852.464 1.336 1.081.483.618.738 1.088h.161v-7.44h2.955v20.009h-2.874v-2.35h-.242q-.255.483-.752 1.101t-1.356 1.081-2.216.463m.645-2.51q1.262 0 2.128-.672.866-.671 1.316-1.86.45-1.188.45-2.746 0-1.571-.443-2.733-.443-1.161-1.31-1.812-.865-.652-2.141-.652-1.303 0-2.169.685t-1.302 1.86-.437 2.652q0 1.49.443 2.686t1.316 1.893 2.149.698"/><path d="M299.152 431.359q-2.216 0-3.827-.954-1.611-.953-2.478-2.685-.866-1.732-.866-4.069 0-2.31.853-4.069t2.41-2.746 3.653-.987q1.289 0 2.484.423t2.149 1.323 1.51 2.33.558 3.47v1.048h-11.965v-2.202h10.447l-1.383.725q0-1.383-.43-2.437t-1.269-1.645-2.101-.59q-1.249 0-2.135.603-.886.605-1.35 1.592-.463.987-.463 2.155v1.504q0 1.544.53 2.612.53 1.067 1.484 1.611t2.216.544q.832 0 1.504-.235.671-.235 1.161-.712.49-.476.746-1.175l2.78.658q-.363 1.155-1.216 2.041-.853.887-2.122 1.377t-2.88.49"/><path d="M316.52 431.359q-2.122 0-3.693-.967t-2.444-2.712-.873-4.056q0-2.336.873-4.089.873-1.752 2.444-2.719t3.692-.967q1.169 0 2.19.302t1.846.873 1.396 1.397q.57.826.853 1.86l-2.807.671q-.147-.577-.456-1.054t-.746-.826-1.007-.537-1.255-.188q-1.356 0-2.25.718-.892.719-1.329 1.914t-.436 2.645q0 1.437.436 2.625.437 1.189 1.33 1.9.893.712 2.249.712.698 0 1.276-.195.577-.194 1.033-.55.457-.356.766-.86.309-.503.443-1.107l2.793.671q-.268 1.06-.846 1.9-.577.84-1.403 1.43-.826.591-1.86.9t-2.216.309"/><path d="M327.456 431.05v-15.013h2.954v15.013Zm1.49-17.309q-.765 0-1.309-.51t-.543-1.236q0-.738.543-1.249.544-.51 1.31-.51.765 0 1.316.51.55.51.55 1.25 0 .724-.55 1.235-.55.51-1.316.51"/><path d="M341.143 431.359q-1.625 0-2.894-.47t-2.081-1.39-1.081-2.25l2.78-.577q.308 1.169 1.154 1.733t2.149.564q1.423 0 2.27-.598.845-.597.845-1.43 0-.725-.517-1.195t-1.59-.698l-2.525-.578q-2.095-.47-3.116-1.504t-1.02-2.645q0-1.343.752-2.35t2.054-1.565 3.008-.557q1.625 0 2.78.47t1.873 1.316 1.027 1.96l-2.645.578q-.282-.792-.98-1.39-.699-.597-2.028-.597-1.222 0-2.041.55-.82.55-.82 1.397 0 .752.545 1.215.543.463 1.779.745l2.417.537q2.081.47 3.088 1.478 1.008 1.007 1.008 2.578 0 1.37-.786 2.424t-2.175 1.651-3.23.598"/><path d="M351.945 431.05v-15.013h2.954v15.013Zm1.49-17.309q-.765 0-1.309-.51t-.544-1.236q0-.738.544-1.249.544-.51 1.31-.51.765 0 1.315.51t.55 1.25q0 .724-.55 1.235-.55.51-1.316.51"/><path d="M366.558 431.359q-2.108 0-3.686-.967t-2.45-2.712-.873-4.056q0-2.336.873-4.089.873-1.752 2.45-2.719t3.686-.967q2.122 0 3.7.967t2.45 2.72.873 4.088q0 2.31-.872 4.056-.873 1.745-2.451 2.712t-3.7.967m0-2.498q1.37 0 2.263-.718.893-.719 1.33-1.907.436-1.188.436-2.612 0-1.437-.437-2.638-.436-1.202-1.329-1.92-.893-.72-2.263-.72-1.356 0-2.242.72-.886.718-1.323 1.913t-.436 2.645q0 1.424.436 2.612.437 1.188 1.323 1.907.886.718 2.242.718"/><path d="M381.186 422.16v8.89h-2.954v-15.013h2.82l.027 3.68h-.309q.658-2.015 1.907-2.941 1.249-.927 3.021-.927 1.531 0 2.672.645 1.142.644 1.786 1.9t.645 3.122v9.534h-2.954v-9.171q0-1.625-.846-2.538-.846-.914-2.323-.914-.994 0-1.786.437-.793.436-1.25 1.269-.456.832-.456 2.027"/><path d="M401.536 431.359q-1.625 0-2.894-.47t-2.081-1.39-1.081-2.25l2.78-.577q.308 1.169 1.154 1.733t2.149.564q1.423 0 2.27-.598.845-.597.845-1.43 0-.725-.517-1.195t-1.591-.698l-2.525-.578q-2.094-.47-3.115-1.504-1.02-1.034-1.02-2.645 0-1.343.751-2.35.752-1.007 2.055-1.565 1.302-.557 3.008-.557 1.625 0 2.78.47t1.873 1.316 1.027 1.96l-2.645.578q-.282-.792-.98-1.39-.699-.597-2.028-.597-1.222 0-2.041.55-.82.55-.82 1.397 0 .752.544 1.215t1.78.745l2.417.537q2.081.47 3.088 1.478 1.007 1.007 1.007 2.578 0 1.37-.785 2.424-.786 1.054-2.176 1.651-1.39.598-3.23.598"/><path d="m412.029 436.032 1.181-7.856h3.183l-2.216 7.856Z"/><path d="M430.757 431.05v-15.013h2.807l.08 3.478h-.228q.322-1.276.994-2.095t1.57-1.228 1.88-.41q1.639 0 2.646 1.014t1.356 2.827h-.376q.296-1.236 1.02-2.095.726-.86 1.753-1.303t2.196-.443q1.33 0 2.41.577 1.081.578 1.712 1.72.631 1.14.631 2.846v10.125h-2.954v-9.83q0-1.503-.84-2.175-.838-.671-1.98-.671-.926 0-1.598.39-.671.389-1.034 1.08-.362.692-.362 1.591v9.615h-2.914v-10.017q0-1.209-.772-1.934t-1.968-.725q-.819 0-1.524.382-.705.383-1.128 1.128-.423.746-.423 1.833v9.333Z"/><path d="M460.76 431.386q-1.423 0-2.578-.53-1.154-.531-1.826-1.552-.671-1.02-.671-2.497 0-1.276.49-2.095t1.33-1.303 1.866-.725 2.088-.362l2.162-.262q.832-.1 1.229-.336.396-.235.396-.759v-.08q0-.846-.323-1.424-.322-.577-.96-.893-.638-.315-1.59-.315-.981 0-1.686.302t-1.142.772q-.436.47-.65.98l-2.78-.725q.51-1.343 1.463-2.162t2.189-1.195 2.551-.376q.913 0 1.934.215t1.92.779 1.464 1.584.564 2.66v9.963h-2.86v-2.055h-.148q-.295.578-.873 1.128-.577.551-1.457.907t-2.101.356m.659-2.377q1.208 0 2.068-.47.859-.47 1.316-1.249.456-.779.456-1.652v-1.92q-.161.161-.61.289-.45.127-1.028.228-.578.1-1.115.168-.537.067-.886.107-.832.108-1.524.363t-1.101.725-.41 1.249q0 .712.37 1.195.369.483 1 .725t1.464.242"/><path d="M479.136 431.345q-1.826 0-3.25-.933t-2.229-2.672-.805-4.156q0-2.444.819-4.176t2.242-2.646 3.223-.913q1.397 0 2.25.463.852.464 1.335 1.081.484.618.739 1.088h.161v-7.44h2.954v20.009h-2.873v-2.35h-.242q-.255.483-.752 1.101t-1.356 1.081-2.216.463m.645-2.51q1.262 0 2.128-.672.866-.671 1.316-1.86.45-1.188.45-2.746 0-1.571-.443-2.733-.443-1.161-1.31-1.812-.866-.652-2.141-.652-1.303 0-2.17.685-.865.685-1.302 1.86-.436 1.175-.436 2.652 0 1.49.443 2.686t1.316 1.893 2.149.698"/><path d="M498.395 431.359q-2.216 0-3.827-.954-1.611-.953-2.478-2.685-.866-1.732-.866-4.069 0-2.31.853-4.069t2.41-2.746 3.653-.987q1.289 0 2.484.423t2.149 1.323 1.51 2.33.558 3.47v1.048h-11.965v-2.202h10.447l-1.383.725q0-1.383-.43-2.437t-1.269-1.645-2.101-.59q-1.249 0-2.135.603-.886.605-1.35 1.592-.463.987-.463 2.155v1.504q0 1.544.53 2.612.53 1.067 1.484 1.611t2.216.544q.832 0 1.504-.235.671-.235 1.161-.712.49-.476.746-1.175l2.78.658q-.363 1.155-1.216 2.041-.853.887-2.122 1.377t-2.88.49"/><path d="M524.469 431.359q-2.122 0-3.693-.967t-2.444-2.712-.873-4.056q0-2.336.873-4.089.873-1.752 2.444-2.719t3.693-.967q1.168 0 2.189.302 1.02.302 1.846.873.826.57 1.397 1.397.57.826.852 1.86l-2.806.671q-.148-.577-.457-1.054t-.745-.826-1.007-.537-1.256-.188q-1.356 0-2.249.718-.893.719-1.33 1.914-.436 1.195-.436 2.645 0 1.437.437 2.625.436 1.189 1.33 1.9.892.712 2.248.712.699 0 1.276-.195.577-.194 1.034-.55t.765-.86q.31-.503.444-1.107l2.793.671q-.269 1.06-.846 1.9-.578.84-1.404 1.43-.825.591-1.86.9-1.033.309-2.215.309"/><path d="M538.36 411.042v20.008h-2.954v-20.008Z"/><path d="M550.18 431.359q-2.215 0-3.827-.954-1.611-.953-2.477-2.685t-.866-4.069q0-2.31.852-4.069.853-1.759 2.41-2.746t3.653-.987q1.29 0 2.484.423 1.196.423 2.149 1.323t1.51 2.33.558 3.47v1.048H544.66v-2.202h10.447l-1.383.725q0-1.383-.43-2.437t-1.268-1.645-2.102-.59q-1.249 0-2.135.603-.886.605-1.35 1.592-.463.987-.463 2.155v1.504q0 1.544.53 2.612.531 1.067 1.484 1.611.954.544 2.216.544.833 0 1.504-.235.672-.235 1.162-.712.49-.476.745-1.175l2.78.658q-.363 1.155-1.216 2.041-.852.887-2.121 1.377t-2.88.49"/><path d="M565.44 431.386q-1.424 0-2.579-.53-1.155-.531-1.826-1.552t-.671-2.497q0-1.276.49-2.095t1.33-1.303q.838-.483 1.866-.725 1.027-.242 2.088-.362l2.162-.262q.832-.1 1.228-.336.396-.235.396-.759v-.08q0-.846-.322-1.424-.322-.577-.96-.893-.638-.315-1.591-.315-.98 0-1.685.302t-1.142.772-.651.98l-2.78-.725q.51-1.343 1.464-2.162.953-.819 2.189-1.195 1.235-.376 2.551-.376.913 0 1.934.215t1.92.779 1.464 1.584.564 2.66v9.963h-2.86v-2.055h-.148q-.296.578-.873 1.128-.578.551-1.457.907t-2.102.356m.657-2.377q1.209 0 2.068-.47.86-.47 1.316-1.249t.457-1.652v-1.92q-.161.161-.611.289t-1.027.228-1.115.168-.886.107q-.833.108-1.524.363t-1.101.725-.41 1.249q0 .712.37 1.195.369.483 1 .725.63.242 1.463.242"/><path d="M578.229 431.05v-15.013h2.86v2.417h.161q.416-1.235 1.45-1.933 1.034-.699 2.35-.699.282 0 .645.02.362.02.604.06v2.82q-.161-.053-.618-.107-.456-.053-.926-.053-1.02 0-1.84.43-.819.43-1.276 1.188-.456.759-.456 1.752v9.118Z"/><path d="M592.427 431.251q-.833 0-1.41-.577-.578-.577-.578-1.397 0-.832.578-1.403.577-.57 1.41-.57.819 0 1.396.57.578.57.578 1.403 0 .82-.578 1.397-.577.577-1.396.577"/></g></g></svg>