<svg xmlns="http://www.w3.org/2000/svg" width="1200" height="630" aria-labelledby="rs-social-title rs-social-desc" viewBox="0 0 1200 630"><title id="rs-social-title">Rulestead — Runtime decisions, made clear.</title><desc id="rs-social-desc">Rulestead social card. Multivariate decision branch mark beside the Rulestead wordmark and tagline: Runtime decisions, made clear.</desc><g aria-hidden="true"><path fill="#183247" d="M0 0h1200v630H0z"/><g transform="matrix(4 0 0 4 120 187)"><rect width="7.5" height="39.5" x="30" y="13" fill="#5885a0" rx="1"/><rect width="20" height="7.5" x="12" y="28.25" fill="#5885a0" rx="1"/><circle cx="12" cy="32" r="6.5" fill="#5885a0"/><rect width="14" height="7.5" x="32" y="12.25" fill="#9b5931" rx="1"/><circle cx="50" cy="16" r="6.5" fill="#9b5931"/><rect width="14" height="7.5" x="32" y="28.25" fill="#5885a0" rx="1"/><circle cx="50" cy="32" r="6.5" fill="#c4ccd1"/><rect width="14" height="7.5" x="32" y="44.25" fill="#5885a0" rx="1"/><circle cx="50" cy="48" r="6.5" fill="#c4ccd1"/></g><g fill="#e8edf3" transform="matrix(3 0 0 3 444 195)"><path fill-rule="evenodd" d="M76 10h5v17h11c5 0 9 4 9 9s-4 9-9 9l11 9h-7l-10-9v9h-5V10zm5 4v16h9c3 0 5-2 5-5s-2-6-5-6h-9z"/><path d="M104 24h5v20q0 6 6 6t6-6V24h5v20c0 7-5 12-11 12s-11-5-11-12z"/><rect width="5" height="44" x="128" y="10" rx="1"/><path fill-rule="evenodd" d="M149 24c-7 0-12 7-12 14s5 14 12 14c5 0 9-3 11-7h-6c-1 2-3 3-5 3-4 0-7-3-7-7h19v-3c0-7-5-14-12-14m-11 14c0-4 3-7 11-7 4 0 7 3 7 7z"/><path d="M181 28c-1-3-4-4-8-4s-6 2-6 4c0 3 2 4 7 5 6 1 10 4 10 9s-4 9-11 9c-6 0-10-3-11-8h5c1 3 3 4 6 4 4 0 6-2 6-5s-2-4-7-5c-6-1-10-4-10-9s4-9 11-9c5 0 9 2 11 7h-3z"/><rect width="5" height="38" x="189" y="14" rx="1"/><rect width="15" height="5" x="184" y="29" rx="1"/><path fill-rule="evenodd" d="M213 24c-7 0-12 7-12 14s5 14 12 14c5 0 9-3 11-7h-6c-1 2-3 3-5 3-4 0-7-3-7-7h19v-3c0-7-5-14-12-14m-11 14c0-4 3-7 11-7 4 0 7 3 7 7z"/><path fill-rule="evenodd" d="M247 24v28h-5v-3c-2 2-5 3-8 3-7 0-11-6-11-14s4-14 11-14c3 0 6 1 8 3v-3zm-13 4c-4 0-7 4-7 10s3 10 7 10 8-4 8-10-4-10-8-10m37-18v42h-5v-3c-2 2-5 3-8 3-7 0-11-6-11-14s4-14 11-14c3 0 6 1 8 3V10zm-13 18c-4 0-7 4-7 10s3 10 7 10 8-4 8-10-4-10-8-10"/></g><g fill="#e8edf3" opacity=".7"><path fill-rule="evenodd" d="M444 415h6.4v20.8h12.8c6.4 0 11.2 4.8 11.2 11.2s-4.8 11.2-11.2 11.2l12.8 11.2h-8l-12.8-11.2v11.2h-6.4V415zm6.4 6.4v19.2h11.2c3.2 0 6.4-3.2 6.4-6.4s-3.2-6.4-6.4-6.4h-11.2z"/><path d="M476 431h6.4v25.6c0 4.8 3.2 8 8 8s8-3.2 8-8V431h6.4v25.6c0 9.6-6.4 14.4-14.4 14.4s-14.4-4.8-14.4-14.4zm32 0h6.4v4.8c3.2-3.2 6.4-4.8 11.2-4.8 8 0 12.8 4.8 12.8 14.4V471H532v-24c0-6.4-3.2-9.6-8-9.6s-9.6 3.2-9.6 9.6v24H508zm35.2-9.6h6.4V471h-6.4z"/><path d="M536.8 437.4H556v6.4h-19.2zm24-6.4h6.4v40h-6.4zm0-11.2h6.4v6.4h-6.4zM572 431h6.4v4.8q4.8-4.8 9.6-4.8c4.8 0 8 1.6 11.2 6.4 3.2-4.8 6.4-6.4 11.2-6.4 8 0 12.8 4.8 12.8 14.4V471h-6.4v-24c0-6.4-3.2-8-6.4-8-4.8 0-8 3.2-8 8v24H596v-24c0-6.4-3.2-8-8-8s-8 3.2-8 8v24h-6.4v-40z"/><path fill-rule="evenodd" d="M628 431c-9.6 0-16 8-16 19.2s6.4 19.2 16 19.2q9.6 0 14.4-9.6h-8c-1.6 3.2-3.2 3.2-6.4 3.2q-7.2 0-9.6-9.6H644v-3.2c0-11.2-6.4-19.2-16-19.2m-16 14.4c0-4.8 4.8-8 16-8 4.8 0 8 3.2 8 8zm62.4-30.4v56H668v-3.2c-3.2 3.2-6.4 3.2-9.6 3.2-9.6 0-14.4-8-14.4-19.2s4.8-19.2 14.4-19.2q4.8 0 9.6 4.8V415zm-16 22.4c-4.8 0-9.6 4.8-9.6 12.8s4.8 12.8 9.6 12.8 9.6-4.8 9.6-12.8-4.8-12.8-9.6-12.8"/><path fill-rule="evenodd" d="M684 431c-9.6 0-16 8-16 19.2s6.4 19.2 16 19.2q9.6 0 14.4-9.6h-8c-1.6 3.2-3.2 3.2-6.4 3.2q-7.2 0-9.6-9.6H700v-3.2c0-11.2-6.4-19.2-16-19.2m-16 14.4c0-4.8 4.8-8 16-8 4.8 0 8 3.2 8 8z"/><path d="M724 437.4c-1.6-4.8-6.4-6.4-11.2-6.4-8 0-14.4 8-14.4 19.2s6.4 19.2 14.4 19.2c4.8 0 9.6-1.6 11.2-8h-8c0 1.6-1.6 3.2-4.8 3.2-4.8 0-8-4.8-8-14.4s3.2-14.4 8-14.4q4.8 0 4.8 4.8h8zm3.2-6.4h6.4v40h-6.4zm0-11.2h6.4v6.4h-6.4z"/><path d="M757.6 437.4c-1.6-3.2-4.8-6.4-9.6-6.4s-8 1.6-8 4.8 1.6 4.8 8 6.4c8 1.6 12.8 4.8 12.8 11.2s-4.8 11.2-14.4 11.2q-12 0-14.4-9.6h6.4c1.6 3.2 3.2 4.8 8 4.8s8-1.6 8-6.4c0-3.2-3.2-4.8-9.6-6.4-8-1.6-11.2-4.8-11.2-11.2s4.8-11.2 14.4-11.2q9.6 0 14.4 9.6h-4.8zm6.4-6.4h6.4v40H764zm0-11.2h6.4v6.4H764z"/><path fill-rule="evenodd" d="M775.2 450.2c0-11.2 8-19.2 17.6-19.2s17.6 8 17.6 19.2-8 19.2-17.6 19.2-17.6-8-17.6-19.2m6.4 0c0 8 4.8 14.4 11.2 14.4s11.2-6.4 11.2-14.4-4.8-12.8-11.2-12.8-11.2 4.8-11.2 12.8"/><path d="M813.6 431h6.4v4.8c3.2-3.2 6.4-4.8 11.2-4.8 8 0 12.8 4.8 12.8 14.4V471h-6.4v-24c0-6.4-3.2-9.6-8-9.6s-9.6 3.2-9.6 9.6v24h-6.4zm56 6.4c-1.6-3.2-4.8-6.4-9.6-6.4s-8 1.6-8 4.8 1.6 4.8 8 6.4c8 1.6 12.8 4.8 12.8 11.2s-4.8 11.2-14.4 11.2q-12 0-14.4-9.6h6.4c1.6 3.2 3.2 4.8 8 4.8s8-1.6 8-6.4c0-3.2-3.2-4.8-9.6-6.4-8-1.6-11.2-4.8-11.2-11.2s4.8-11.2 14.4-11.2q9.6 0 14.4 9.6h-4.8zm6.4 28.8h6.4v6.4l-3.2 8h-4.8l3.2-8H876zm16-35.2h6.4v4.8q4.8-4.8 9.6-4.8c4.8 0 8 1.6 11.2 6.4 3.2-4.8 6.4-6.4 11.2-6.4 8 0 12.8 4.8 12.8 14.4V471h-6.4v-24c0-6.4-3.2-8-6.4-8-4.8 0-8 3.2-8 8v24H916v-24c0-6.4-3.2-8-8-8s-8 3.2-8 8v24h-6.4v-40z"/><path fill-rule="evenodd" d="M968.8 431v40h-6.4v-3.2c-3.2 3.2-6.4 3.2-9.6 3.2-9.6 0-14.4-8-14.4-19.2s4.8-19.2 14.4-19.2c3.2 0 6.4 1.6 9.6 3.2V431zm-16 6.4c-4.8 0-9.6 4.8-9.6 12.8s4.8 12.8 9.6 12.8 9.6-4.8 9.6-12.8-4.8-12.8-9.6-12.8M1004 415v56h-6.4v-3.2c-3.2 3.2-6.4 3.2-9.6 3.2-9.6 0-14.4-8-14.4-19.2s4.8-19.2 14.4-19.2q4.8 0 9.6 4.8V415zm-16 22.4c-4.8 0-9.6 4.8-9.6 12.8s4.8 12.8 9.6 12.8 9.6-4.8 9.6-12.8-4.8-12.8-9.6-12.8"/><path fill-rule="evenodd" d="M1013.6 431c-9.6 0-16 8-16 19.2s6.4 19.2 16 19.2q9.6 0 14.4-9.6h-8c-1.6 3.2-3.2 3.2-6.4 3.2q-7.2 0-9.6-9.6h25.6v-3.2c0-11.2-6.4-19.2-16-19.2m-16 14.4c0-4.8 4.8-8 16-8 4.8 0 8 3.2 8 8z"/><path d="M1053.6 437.4c-1.6-4.8-6.4-6.4-11.2-6.4-8 0-14.4 8-14.4 19.2s6.4 19.2 14.4 19.2c4.8 0 9.6-1.6 11.2-8h-8c0 1.6-1.6 3.2-4.8 3.2-4.8 0-8-4.8-8-14.4s3.2-14.4 8-14.4q4.8 0 4.8 4.8h8zm3.2-22.4h6.4v56h-6.4z"/><path fill-rule="evenodd" d="M1072.8 431c-9.6 0-16 8-16 19.2s6.4 19.2 16 19.2q9.6 0 14.4-9.6h-8c-1.6 3.2-3.2 3.2-6.4 3.2q-7.2 0-9.6-9.6h25.6v-3.2c0-11.2-6.4-19.2-16-19.2m-16 14.4c0-4.8 4.8-8 16-8 4.8 0 8 3.2 8 8z"/><path fill-rule="evenodd" d="M1114.4 431v40h-6.4v-3.2c-3.2 3.2-6.4 3.2-9.6 3.2-9.6 0-14.4-8-14.4-19.2s4.8-19.2 14.4-19.2c3.2 0 6.4 1.6 9.6 3.2V431zm-16 6.4c-4.8 0-9.6 4.8-9.6 12.8s4.8 12.8 9.6 12.8 9.6-4.8 9.6-12.8-4.8-12.8-9.6-12.8"/><path d="M1120.8 431h6.4v6.4c1.6-4.8 6.4-6.4 11.2-6.4v6.4c-6.4 0-11.2 3.2-11.2 11.2V471h-6.4zm19.2 33.6h6.4v6.4h-6.4z"/></g></g></svg>