<svg xmlns="http://www.w3.org/2000/svg" aria-labelledby="rs-wm-dark-title rs-wm-dark-desc" viewBox="0 0 388 64"><title id="rs-wm-dark-title">Rulestead — dark variant</title><desc id="rs-wm-dark-desc">Rulestead wordmark dark variant — geometric mark beside the word Rulestead in bold structured letterforms, optimised for dark backgrounds</desc><g aria-hidden="true"><rect width="7.5" height="39.5" x="30" y="13" fill="#5885a0" rx="1"/><rect width="20" height="7.5" x="12" y="28.25" fill="#5885a0" rx="1"/><circle cx="12" cy="32" r="6.5" fill="#5885a0"/><rect width="14" height="7.5" x="32" y="12.25" fill="#9b5931" rx="1"/><circle cx="50" cy="16" r="6.5" fill="#9b5931"/><rect width="14" height="7.5" x="32" y="28.25" fill="#5885a0" rx="1"/><circle cx="50" cy="32" r="6.5" fill="#c4ccd1"/><rect width="14" height="7.5" x="32" y="44.25" fill="#5885a0" rx="1"/><circle cx="50" cy="48" r="6.5" fill="#c4ccd1"/><path fill="#e8edf3" fill-rule="evenodd" d="M76 10h5v17h11c5 0 9 4 9 9s-4 9-9 9l11 9h-7l-10-9v9h-5V10zm5 4v16h9c3 0 5-2 5-5s-2-6-5-6h-9z"/><path fill="#e8edf3" d="M104 24h5v20q0 6 6 6t6-6V24h5v20c0 7-5 12-11 12s-11-5-11-12z"/><rect width="5" height="44" x="128" y="10" fill="#e8edf3" rx="1"/><path fill="#e8edf3" fill-rule="evenodd" d="M149 24c-7 0-12 7-12 14s5 14 12 14c5 0 9-3 11-7h-6c-1 2-3 3-5 3-4 0-7-3-7-7h19v-3c0-7-5-14-12-14m-11 14c0-4 3-7 11-7 4 0 7 3 7 7z"/><path fill="#e8edf3" d="M181 28c-1-3-4-4-8-4s-6 2-6 4c0 3 2 4 7 5 6 1 10 4 10 9s-4 9-11 9c-6 0-10-3-11-8h5c1 3 3 4 6 4 4 0 6-2 6-5s-2-4-7-5c-6-1-10-4-10-9s4-9 11-9c5 0 9 2 11 7h-3z"/><rect width="5" height="38" x="189" y="14" fill="#e8edf3" rx="1"/><rect width="15" height="5" x="184" y="29" fill="#e8edf3" rx="1"/><path fill="#e8edf3" fill-rule="evenodd" d="M213 24c-7 0-12 7-12 14s5 14 12 14c5 0 9-3 11-7h-6c-1 2-3 3-5 3-4 0-7-3-7-7h19v-3c0-7-5-14-12-14m-11 14c0-4 3-7 11-7 4 0 7 3 7 7z"/><path fill="#e8edf3" fill-rule="evenodd" d="M247 24v28h-5v-3c-2 2-5 3-8 3-7 0-11-6-11-14s4-14 11-14c3 0 6 1 8 3v-3zm-13 4c-4 0-7 4-7 10s3 10 7 10 8-4 8-10-4-10-8-10m37-18v42h-5v-3c-2 2-5 3-8 3-7 0-11-6-11-14s4-14 11-14c3 0 6 1 8 3V10zm-13 18c-4 0-7 4-7 10s3 10 7 10 8-4 8-10-4-10-8-10"/></g></svg>