<svg xmlns="http://www.w3.org/2000/svg" role="img" aria-labelledby="rs-wordmark-tagline-title rs-wordmark-tagline-desc" viewBox="0 0 340 96">
  <title id="rs-wordmark-tagline-title">Rulestead — Runtime decisions, made clear.</title>
  <desc id="rs-wordmark-tagline-desc">Rulestead wordmark lockup with the tagline "Runtime decisions, made clear." set below it in letter-spaced Inter Medium, Moss Grey.</desc>
  <g transform="translate(0 -14)">

  <path d="M33.4 55 L40.84 65.66 Q44.0 70.2 49.5 70.2 H311 Q318 70.2 318 63.2 V29 M318 29 H330.5 M318 40.5 H330.5 M318 52 H330.5" fill="none" stroke="#3A6F8F" stroke-width="3.2" stroke-linecap="round" stroke-linejoin="round"/>
  <g fill="#183247">
    <path transform="translate(0.000,64.000) scale(0.064000,-0.064000)" d="M82 0V736H246V0ZM525 0 311 314H491L715 0ZM202 234V363H382Q418 363 444.5 377.5Q471 392 485.5 418.5Q500 445 500 480Q500 515 485.5 541.5Q471 568 444.5 582.5Q418 597 382 597H202V736H369Q460 736 527.0 708.5Q594 681 630.0 627.0Q666 573 666 491V475Q666 394 629.5 340.5Q593 287 526.5 260.5Q460 234 369 234Z"/>
    <path transform="translate(45.760,64.000) scale(0.064000,-0.064000)" d="M258 -17Q163 -17 112.0 44.5Q61 106 61 230V548H221V222Q221 178 246.0 152.0Q271 126 313 126Q356 126 383.0 153.0Q410 180 410 226V548H570V0H443V231H454Q454 148 432.5 92.5Q411 37 369.0 10.0Q327 -17 265 -17Z"/>
    <path transform="translate(86.080,64.000) scale(0.064000,-0.064000)" d="M80 0V730H241V0ZM15 612V730H241V612Z"/>
    <path transform="translate(105.280,64.000) scale(0.064000,-0.064000)" d="M324 -19Q254 -19 200.5 5.0Q147 29 111.5 69.5Q76 110 57.5 160.5Q39 211 39 264V284Q39 339 57.5 389.5Q76 440 111.0 480.0Q146 520 198.5 543.5Q251 567 318 567Q406 567 466.5 527.5Q527 488 559.0 424.5Q591 361 591 286V232H106V323H494L442 281Q442 330 428.0 365.0Q414 400 386.5 418.5Q359 437 318 437Q276 437 247.0 418.0Q218 399 203.0 362.5Q188 326 188 273Q188 224 202.0 187.5Q216 151 246.0 131.0Q276 111 324 111Q368 111 396.0 128.0Q424 145 434 170H581Q569 115 534.0 72.0Q499 29 446.0 5.0Q393 -19 324 -19Z"/>
    <path transform="translate(144.256,64.000) scale(0.064000,-0.064000)" d="M281 -17Q164 -17 98.0 31.0Q32 79 28 166H170Q174 140 201.5 119.5Q229 99 284 99Q326 99 353.5 113.5Q381 128 381 155Q381 179 360.0 193.5Q339 208 285 214L242 218Q143 228 93.5 273.0Q44 318 44 388Q44 446 73.0 485.0Q102 524 153.5 544.0Q205 564 271 564Q377 564 442.0 517.5Q507 471 510 383H368Q364 410 340.0 428.5Q316 447 269 447Q232 447 210.0 433.0Q188 419 188 395Q188 372 207.0 360.0Q226 348 269 343L312 339Q413 328 469.0 283.0Q525 238 525 162Q525 107 495.0 66.5Q465 26 410.0 4.5Q355 -17 281 -17Z"/>
    <path transform="translate(178.880,64.000) scale(0.064000,-0.064000)" d="M322 -7Q239 -7 188.0 13.5Q137 34 113.5 82.5Q90 131 90 214V696H239V208Q239 169 259.5 148.5Q280 128 318 128H399V-7ZM7 431V548H399V431Z"/>
    <path transform="translate(205.696,64.000) scale(0.064000,-0.064000)" d="M324 -19Q254 -19 200.5 5.0Q147 29 111.5 69.5Q76 110 57.5 160.5Q39 211 39 264V284Q39 339 57.5 389.5Q76 440 111.0 480.0Q146 520 198.5 543.5Q251 567 318 567Q406 567 466.5 527.5Q527 488 559.0 424.5Q591 361 591 286V232H106V323H494L442 281Q442 330 428.0 365.0Q414 400 386.5 418.5Q359 437 318 437Q276 437 247.0 418.0Q218 399 203.0 362.5Q188 326 188 273Q188 224 202.0 187.5Q216 151 246.0 131.0Q276 111 324 111Q368 111 396.0 128.0Q424 145 434 170H581Q569 115 534.0 72.0Q499 29 446.0 5.0Q393 -19 324 -19Z"/>
    <path transform="translate(244.672,64.000) scale(0.064000,-0.064000)" d="M404 0V162H377V338Q377 380 357.0 401.0Q337 422 293 422Q271 422 235.0 421.0Q199 420 161.0 418.0Q123 416 92 414V549Q115 551 146.0 553.0Q177 555 210.0 556.0Q243 557 272 557Q356 557 413.5 533.0Q471 509 501.0 460.5Q531 412 531 336V0ZM229 -14Q170 -14 125.5 7.0Q81 28 56.0 67.5Q31 107 31 162Q31 222 62.0 260.5Q93 299 149.0 317.5Q205 336 278 336H395V247H277Q235 247 212.5 226.5Q190 206 190 171Q190 138 212.5 117.5Q235 97 277 97Q304 97 325.5 106.5Q347 116 361.0 139.0Q375 162 377 203L415 163Q410 106 387.5 67.0Q365 28 325.5 7.0Q286 -14 229 -14Z"/>
    <path transform="translate(281.728,64.000) scale(0.064000,-0.064000)" d="M299 -18Q241 -18 193.5 3.0Q146 24 111.0 61.5Q76 99 57.5 150.0Q39 201 39 260V283Q39 342 56.5 393.0Q74 444 107.5 482.5Q141 521 188.0 542.5Q235 564 293 564Q359 564 407.0 535.5Q455 507 482.0 451.5Q509 396 512 315L470 354V730H631V0H504V227H526Q523 149 493.5 94.0Q464 39 414.0 10.5Q364 -18 299 -18ZM339 116Q376 116 406.5 132.5Q437 149 455.5 181.0Q474 213 474 258V295Q474 339 455.0 369.0Q436 399 405.0 415.0Q374 431 338 431Q298 431 266.5 410.5Q235 390 217.0 354.5Q199 319 199 272Q199 224 217.0 189.0Q235 154 267.0 135.0Q299 116 339 116Z"/>
  </g>
  <circle cx="330.5" cy="29" r="3.2" fill="#9b5931"/>
  <circle cx="330.5" cy="40.5" r="3.2" fill="#C4CCD1"/>
  <circle cx="330.5" cy="52" r="3.2" fill="#C4CCD1"/>
  
  </g>
  <g fill="#606d66" transform="translate(4.442 79)">
    <path transform="translate(0.000,10.000) scale(0.004883,-0.004883)" d="M165 0V1490H699Q871 1490 986.0 1430.5Q1101 1371 1158.0 1265.0Q1215 1159 1215 1022Q1215 884 1157.5 780.5Q1100 677 985.0 620.0Q870 563 697 563H296V758H675Q785 758 852.5 789.5Q920 821 952.0 880.0Q984 939 984 1022Q984 1106 952.0 1167.0Q920 1228 852.0 1261.5Q784 1295 673 1295H393V0ZM1012 0 651 673H904L1271 0Z"/>
    <path transform="translate(6.979,10.000) scale(0.004883,-0.004883)" d="M529 -14Q415 -14 329.0 34.0Q243 82 195.5 176.0Q148 270 148 408V1118H368V435Q368 314 431.5 246.0Q495 178 604 178Q679 178 737.5 210.5Q796 243 830.0 305.5Q864 368 864 456V1118H1084V0H874L873 274H894Q845 122 751.0 54.0Q657 -14 529 -14Z"/>
    <path transform="translate(13.495,10.000) scale(0.004883,-0.004883)" d="M368 662V0H148V1118H358L360 844H337Q386 994 479.0 1063.0Q572 1132 704 1132Q818 1132 903.0 1084.0Q988 1036 1036.0 942.5Q1084 849 1084 710V0H864V683Q864 804 801.0 872.0Q738 940 628 940Q554 940 495.0 907.5Q436 875 402.0 813.0Q368 751 368 662Z"/>
    <path transform="translate(20.011,10.000) scale(0.004883,-0.004883)" d="M626 1118V939H20V1118ZM183 1384H403V302Q403 235 431.5 203.5Q460 172 525 172Q542 172 570.0 176.0Q598 180 618 184L657 8Q622 -4 582.0 -9.5Q542 -15 503 -15Q351 -15 267.0 63.5Q183 142 183 284Z"/>
    <path transform="translate(23.914,10.000) scale(0.004883,-0.004883)" d="M148 0V1118H368V0ZM259 1289Q202 1289 161.5 1327.0Q121 1365 121 1419Q121 1474 161.5 1512.0Q202 1550 259 1550Q316 1550 357.0 1512.0Q398 1474 398 1419Q398 1365 357.0 1327.0Q316 1289 259 1289Z"/>
    <path transform="translate(26.934,10.000) scale(0.004883,-0.004883)" d="M148 0V1118H357L363 859H346Q370 954 420.0 1015.0Q470 1076 537.0 1106.5Q604 1137 677 1137Q799 1137 874.0 1061.5Q949 986 975 851H947Q969 943 1023.0 1007.0Q1077 1071 1153.5 1104.0Q1230 1137 1317 1137Q1416 1137 1496.5 1094.0Q1577 1051 1624.0 966.0Q1671 881 1671 754V0H1451V732Q1451 844 1388.5 894.0Q1326 944 1241 944Q1172 944 1122.0 915.0Q1072 886 1045.0 834.5Q1018 783 1018 716V0H801V746Q801 836 743.5 890.0Q686 944 597 944Q536 944 483.5 915.5Q431 887 399.5 831.5Q368 776 368 695V0Z"/>
    <path transform="translate(36.315,10.000) scale(0.004883,-0.004883)" d="M630 -23Q465 -23 345.0 48.0Q225 119 160.5 248.0Q96 377 96 551Q96 723 159.5 854.0Q223 985 339.0 1058.5Q455 1132 611 1132Q707 1132 796.0 1100.5Q885 1069 956.0 1002.0Q1027 935 1068.5 828.5Q1110 722 1110 570V492H219V656H997L894 602Q894 705 862.0 783.5Q830 862 767.5 906.0Q705 950 611 950Q518 950 452.0 905.0Q386 860 351.5 786.5Q317 713 317 626V514Q317 399 356.5 319.5Q396 240 467.0 199.5Q538 159 632 159Q694 159 744.0 176.5Q794 194 830.5 229.5Q867 265 886 317L1093 268Q1066 182 1002.5 116.0Q939 50 844.5 13.5Q750 -23 630 -23Z"/>
    <path transform="translate(45.855,10.000) scale(0.004883,-0.004883)" d="M564 -22Q428 -22 322.0 47.5Q216 117 156.0 246.5Q96 376 96 556Q96 738 157.0 867.0Q218 996 324.0 1064.0Q430 1132 564 1132Q668 1132 731.5 1097.5Q795 1063 831.0 1017.0Q867 971 886 936H898V1490H1118V0H904V175H886Q867 139 830.0 93.0Q793 47 729.0 12.5Q665 -22 564 -22ZM612 165Q706 165 770.5 215.0Q835 265 868.5 353.5Q902 442 902 558Q902 675 869.0 761.5Q836 848 771.5 896.5Q707 945 612 945Q515 945 450.5 894.0Q386 843 353.5 755.5Q321 668 321 558Q321 447 354.0 358.0Q387 269 452.0 217.0Q517 165 612 165Z"/>
    <path transform="translate(52.537,10.000) scale(0.004883,-0.004883)" d="M630 -23Q465 -23 345.0 48.0Q225 119 160.5 248.0Q96 377 96 551Q96 723 159.5 854.0Q223 985 339.0 1058.5Q455 1132 611 1132Q707 1132 796.0 1100.5Q885 1069 956.0 1002.0Q1027 935 1068.5 828.5Q1110 722 1110 570V492H219V656H997L894 602Q894 705 862.0 783.5Q830 862 767.5 906.0Q705 950 611 950Q518 950 452.0 905.0Q386 860 351.5 786.5Q317 713 317 626V514Q317 399 356.5 319.5Q396 240 467.0 199.5Q538 159 632 159Q694 159 744.0 176.5Q794 194 830.5 229.5Q867 265 886 317L1093 268Q1066 182 1002.5 116.0Q939 50 844.5 13.5Q750 -23 630 -23Z"/>
    <path transform="translate(58.911,10.000) scale(0.004883,-0.004883)" d="M618 -23Q460 -23 343.0 49.0Q226 121 161.0 251.0Q96 381 96 553Q96 727 161.0 857.5Q226 988 343.0 1060.0Q460 1132 618 1132Q705 1132 781.0 1109.5Q857 1087 918.5 1044.5Q980 1002 1022.5 940.5Q1065 879 1086 802L877 752Q866 795 843.0 830.5Q820 866 787.5 892.0Q755 918 712.5 932.0Q670 946 619 946Q518 946 451.5 892.5Q385 839 352.5 750.0Q320 661 320 553Q320 446 352.5 357.5Q385 269 451.5 216.0Q518 163 619 163Q671 163 714.0 177.5Q757 192 791.0 218.5Q825 245 848.0 282.5Q871 320 881 365L1089 315Q1069 236 1026.0 173.5Q983 111 921.5 67.0Q860 23 783.0 0.0Q706 -23 618 -23Z"/>
    <path transform="translate(65.183,10.000) scale(0.004883,-0.004883)" d="M148 0V1118H368V0ZM259 1289Q202 1289 161.5 1327.0Q121 1365 121 1419Q121 1474 161.5 1512.0Q202 1550 259 1550Q316 1550 357.0 1512.0Q398 1474 398 1419Q398 1365 357.0 1327.0Q316 1289 259 1289Z"/>
    <path transform="translate(68.202,10.000) scale(0.004883,-0.004883)" d="M549 -23Q428 -23 333.5 12.0Q239 47 178.5 115.5Q118 184 98 283L305 326Q328 239 391.0 197.0Q454 155 551 155Q657 155 720.0 199.5Q783 244 783 306Q783 360 744.5 395.0Q706 430 626 447L438 490Q282 525 206.0 602.0Q130 679 130 799Q130 899 186.0 974.0Q242 1049 339.0 1090.5Q436 1132 563 1132Q684 1132 770.0 1097.0Q856 1062 909.5 999.0Q963 936 986 853L789 810Q768 869 716.0 913.5Q664 958 565 958Q474 958 413.0 917.0Q352 876 352 813Q352 757 392.5 722.5Q433 688 525 667L705 627Q860 592 935.0 517.0Q1010 442 1010 325Q1010 223 951.5 144.5Q893 66 789.5 21.5Q686 -23 549 -23Z"/>
    <path transform="translate(74.088,10.000) scale(0.004883,-0.004883)" d="M148 0V1118H368V0ZM259 1289Q202 1289 161.5 1327.0Q121 1365 121 1419Q121 1474 161.5 1512.0Q202 1550 259 1550Q316 1550 357.0 1512.0Q398 1474 398 1419Q398 1365 357.0 1327.0Q316 1289 259 1289Z"/>
    <path transform="translate(77.107,10.000) scale(0.004883,-0.004883)" d="M618 -23Q461 -23 343.5 49.0Q226 121 161.0 251.0Q96 381 96 553Q96 727 161.0 857.5Q226 988 343.5 1060.0Q461 1132 618 1132Q776 1132 893.5 1060.0Q1011 988 1076.0 857.5Q1141 727 1141 553Q1141 381 1076.0 251.0Q1011 121 893.5 49.0Q776 -23 618 -23ZM618 163Q720 163 786.5 216.5Q853 270 885.5 358.5Q918 447 918 553Q918 660 885.5 749.5Q853 839 786.5 892.5Q720 946 618 946Q517 946 451.0 892.5Q385 839 352.5 750.0Q320 661 320 553Q320 447 352.5 358.5Q385 270 451.0 216.5Q517 163 618 163Z"/>
    <path transform="translate(83.647,10.000) scale(0.004883,-0.004883)" d="M368 662V0H148V1118H358L360 844H337Q386 994 479.0 1063.0Q572 1132 704 1132Q818 1132 903.0 1084.0Q988 1036 1036.0 942.5Q1084 849 1084 710V0H864V683Q864 804 801.0 872.0Q738 940 628 940Q554 940 495.0 907.5Q436 875 402.0 813.0Q368 751 368 662Z"/>
    <path transform="translate(90.163,10.000) scale(0.004883,-0.004883)" d="M549 -23Q428 -23 333.5 12.0Q239 47 178.5 115.5Q118 184 98 283L305 326Q328 239 391.0 197.0Q454 155 551 155Q657 155 720.0 199.5Q783 244 783 306Q783 360 744.5 395.0Q706 430 626 447L438 490Q282 525 206.0 602.0Q130 679 130 799Q130 899 186.0 974.0Q242 1049 339.0 1090.5Q436 1132 563 1132Q684 1132 770.0 1097.0Q856 1062 909.5 999.0Q963 936 986 853L789 810Q768 869 716.0 913.5Q664 958 565 958Q474 958 413.0 917.0Q352 876 352 813Q352 757 392.5 722.5Q433 688 525 667L705 627Q860 592 935.0 517.0Q1010 442 1010 325Q1010 223 951.5 144.5Q893 66 789.5 21.5Q686 -23 549 -23Z"/>
    <path transform="translate(96.049,10.000) scale(0.004883,-0.004883)" d="M125 -371 213 214H450L285 -371Z"/>
    <path transform="translate(102.747,10.000) scale(0.004883,-0.004883)" d="M148 0V1118H357L363 859H346Q370 954 420.0 1015.0Q470 1076 537.0 1106.5Q604 1137 677 1137Q799 1137 874.0 1061.5Q949 986 975 851H947Q969 943 1023.0 1007.0Q1077 1071 1153.5 1104.0Q1230 1137 1317 1137Q1416 1137 1496.5 1094.0Q1577 1051 1624.0 966.0Q1671 881 1671 754V0H1451V732Q1451 844 1388.5 894.0Q1326 944 1241 944Q1172 944 1122.0 915.0Q1072 886 1045.0 834.5Q1018 783 1018 716V0H801V746Q801 836 743.5 890.0Q686 944 597 944Q536 944 483.5 915.5Q431 887 399.5 831.5Q368 776 368 695V0Z"/>
    <path transform="translate(112.129,10.000) scale(0.004883,-0.004883)" d="M461 -25Q355 -25 269.0 14.5Q183 54 133.0 130.0Q83 206 83 316Q83 411 119.5 472.0Q156 533 218.5 569.0Q281 605 357.5 623.0Q434 641 513 650Q612 662 674.0 669.5Q736 677 765.5 694.5Q795 712 795 751V757Q795 820 771.0 863.0Q747 906 699.5 929.5Q652 953 581 953Q508 953 455.5 930.5Q403 908 370.5 873.0Q338 838 322 800L115 854Q153 954 224.0 1015.0Q295 1076 387.0 1104.0Q479 1132 577 1132Q645 1132 721.0 1116.0Q797 1100 864.0 1058.0Q931 1016 973.0 940.0Q1015 864 1015 742V0H802V153H791Q769 110 726.0 69.0Q683 28 617.5 1.5Q552 -25 461 -25ZM510 152Q600 152 664.0 187.0Q728 222 762.0 280.0Q796 338 796 403V546Q784 534 750.5 524.5Q717 515 674.0 507.5Q631 500 591.0 495.0Q551 490 525 487Q463 479 411.5 460.0Q360 441 329.5 406.0Q299 371 299 313Q299 260 326.5 224.0Q354 188 401.0 170.0Q448 152 510 152Z"/>
    <path transform="translate(118.308,10.000) scale(0.004883,-0.004883)" d="M564 -22Q428 -22 322.0 47.5Q216 117 156.0 246.5Q96 376 96 556Q96 738 157.0 867.0Q218 996 324.0 1064.0Q430 1132 564 1132Q668 1132 731.5 1097.5Q795 1063 831.0 1017.0Q867 971 886 936H898V1490H1118V0H904V175H886Q867 139 830.0 93.0Q793 47 729.0 12.5Q665 -22 564 -22ZM612 165Q706 165 770.5 215.0Q835 265 868.5 353.5Q902 442 902 558Q902 675 869.0 761.5Q836 848 771.5 896.5Q707 945 612 945Q515 945 450.5 894.0Q386 843 353.5 755.5Q321 668 321 558Q321 447 354.0 358.0Q387 269 452.0 217.0Q517 165 612 165Z"/>
    <path transform="translate(124.989,10.000) scale(0.004883,-0.004883)" d="M630 -23Q465 -23 345.0 48.0Q225 119 160.5 248.0Q96 377 96 551Q96 723 159.5 854.0Q223 985 339.0 1058.5Q455 1132 611 1132Q707 1132 796.0 1100.5Q885 1069 956.0 1002.0Q1027 935 1068.5 828.5Q1110 722 1110 570V492H219V656H997L894 602Q894 705 862.0 783.5Q830 862 767.5 906.0Q705 950 611 950Q518 950 452.0 905.0Q386 860 351.5 786.5Q317 713 317 626V514Q317 399 356.5 319.5Q396 240 467.0 199.5Q538 159 632 159Q694 159 744.0 176.5Q794 194 830.5 229.5Q867 265 886 317L1093 268Q1066 182 1002.5 116.0Q939 50 844.5 13.5Q750 -23 630 -23Z"/>
    <path transform="translate(134.529,10.000) scale(0.004883,-0.004883)" d="M618 -23Q460 -23 343.0 49.0Q226 121 161.0 251.0Q96 381 96 553Q96 727 161.0 857.5Q226 988 343.0 1060.0Q460 1132 618 1132Q705 1132 781.0 1109.5Q857 1087 918.5 1044.5Q980 1002 1022.5 940.5Q1065 879 1086 802L877 752Q866 795 843.0 830.5Q820 866 787.5 892.0Q755 918 712.5 932.0Q670 946 619 946Q518 946 451.5 892.5Q385 839 352.5 750.0Q320 661 320 553Q320 446 352.5 357.5Q385 269 451.5 216.0Q518 163 619 163Q671 163 714.0 177.5Q757 192 791.0 218.5Q825 245 848.0 282.5Q871 320 881 365L1089 315Q1069 236 1026.0 173.5Q983 111 921.5 67.0Q860 23 783.0 0.0Q706 -23 618 -23Z"/>
    <path transform="translate(140.801,10.000) scale(0.004883,-0.004883)" d="M368 1490V0H148V1490Z"/>
    <path transform="translate(143.820,10.000) scale(0.004883,-0.004883)" d="M630 -23Q465 -23 345.0 48.0Q225 119 160.5 248.0Q96 377 96 551Q96 723 159.5 854.0Q223 985 339.0 1058.5Q455 1132 611 1132Q707 1132 796.0 1100.5Q885 1069 956.0 1002.0Q1027 935 1068.5 828.5Q1110 722 1110 570V492H219V656H997L894 602Q894 705 862.0 783.5Q830 862 767.5 906.0Q705 950 611 950Q518 950 452.0 905.0Q386 860 351.5 786.5Q317 713 317 626V514Q317 399 356.5 319.5Q396 240 467.0 199.5Q538 159 632 159Q694 159 744.0 176.5Q794 194 830.5 229.5Q867 265 886 317L1093 268Q1066 182 1002.5 116.0Q939 50 844.5 13.5Q750 -23 630 -23Z"/>
    <path transform="translate(150.194,10.000) scale(0.004883,-0.004883)" d="M461 -25Q355 -25 269.0 14.5Q183 54 133.0 130.0Q83 206 83 316Q83 411 119.5 472.0Q156 533 218.5 569.0Q281 605 357.5 623.0Q434 641 513 650Q612 662 674.0 669.5Q736 677 765.5 694.5Q795 712 795 751V757Q795 820 771.0 863.0Q747 906 699.5 929.5Q652 953 581 953Q508 953 455.5 930.5Q403 908 370.5 873.0Q338 838 322 800L115 854Q153 954 224.0 1015.0Q295 1076 387.0 1104.0Q479 1132 577 1132Q645 1132 721.0 1116.0Q797 1100 864.0 1058.0Q931 1016 973.0 940.0Q1015 864 1015 742V0H802V153H791Q769 110 726.0 69.0Q683 28 617.5 1.5Q552 -25 461 -25ZM510 152Q600 152 664.0 187.0Q728 222 762.0 280.0Q796 338 796 403V546Q784 534 750.5 524.5Q717 515 674.0 507.5Q631 500 591.0 495.0Q551 490 525 487Q463 479 411.5 460.0Q360 441 329.5 406.0Q299 371 299 313Q299 260 326.5 224.0Q354 188 401.0 170.0Q448 152 510 152Z"/>
    <path transform="translate(156.373,10.000) scale(0.004883,-0.004883)" d="M148 0V1118H361V938H373Q404 1030 481.0 1082.0Q558 1134 656 1134Q677 1134 704.0 1132.5Q731 1131 749 1128V918Q737 922 703.0 926.0Q669 930 634 930Q558 930 497.0 898.0Q436 866 402.0 809.5Q368 753 368 679V0Z"/>
    <path transform="translate(160.740,10.000) scale(0.004883,-0.004883)" d="M311 -15Q249 -15 206.0 28.0Q163 71 163 132Q163 194 206.0 236.5Q249 279 311 279Q372 279 415.0 236.5Q458 194 458 132Q458 71 415.0 28.0Q372 -15 311 -15Z"/>
  </g>
</svg>
