<svg xmlns="http://www.w3.org/2000/svg" aria-labelledby="t d" viewBox="0 0 372 64"><title id="t">Rulestead — dark variant</title><desc id="d">Rulestead wordmark, dark variant — mark beside the word Rulestead set in Sora Bold for dark backgrounds</desc><g aria-hidden="true"><rect width="7.5" height="39.5" x="30" y="13" fill="#5885a0" rx="1"/><rect width="20" height="7.5" x="12" y="28.25" fill="#5885a0" rx="1"/><circle cx="12" cy="32" r="6.5" fill="#5885a0"/><rect width="14" height="7.5" x="32" y="12.25" fill="#9b5931" rx="1"/><circle cx="50" cy="16" r="6.5" fill="#9b5931"/><rect width="14" height="7.5" x="32" y="28.25" fill="#5885a0" rx="1"/><circle cx="50" cy="32" r="6.5" fill="#c4ccd1"/><rect width="14" height="7.5" x="32" y="44.25" fill="#5885a0" rx="1"/><circle cx="50" cy="48" r="6.5" fill="#c4ccd1"/><path fill="#e8edf3" d="M78.493 52V11.675h8.985V52Zm24.272 0L91.04 34.796h9.862L113.175 52ZM85.068 39.18v-7.07h9.862q1.972 0 3.424-.794 1.452-.795 2.247-2.247t.794-3.37q0-1.917-.794-3.369-.795-1.452-2.247-2.246-1.452-.795-3.424-.795h-9.862v-7.615h9.15q4.985 0 8.656 1.506t5.644 4.466 1.972 7.451v.877q0 4.438-2 7.369t-5.643 4.383-8.63 1.452Zm43.068 13.751q-5.205 0-8-3.37t-2.794-10.163V21.975h8.767v17.862q0 2.41 1.37 3.835t3.67 1.424q2.356 0 3.836-1.479t1.479-4V21.975h8.766V52h-6.958V39.344h.603q0 4.547-1.178 7.588-1.178 3.04-3.48 4.52-2.3 1.48-5.698 1.48ZM153.723 52V12.003h8.821V52Zm-3.561-33.531v-6.466h12.382v6.466Zm34.19 34.572q-3.835 0-6.767-1.315-2.93-1.315-4.876-3.534-1.945-2.219-2.959-4.986-1.013-2.767-1.013-5.67V36.44q0-3.014 1.013-5.78 1.014-2.768 2.932-4.96 1.917-2.19 4.794-3.478t6.547-1.288q4.822 0 8.137 2.164 3.314 2.164 5.068 5.644t1.753 7.588v2.959h-26.573v-4.986h21.258l-2.849 2.301q0-2.685-.767-4.602t-2.274-2.932-3.753-1.013q-2.301 0-3.89 1.04-1.589 1.042-2.41 3.042t-.822 4.903q0 2.685.767 4.685t2.41 3.096q1.644 1.095 4.274 1.095 2.41 0 3.945-.931 1.534-.932 2.082-2.301h8.054q-.657 3.013-2.575 5.37-1.918 2.355-4.822 3.67t-6.684 1.315m31.834-.11q-6.41 0-10.027-2.63t-3.835-7.396h7.78q.22 1.424 1.726 2.548 1.507 1.123 4.52 1.123 2.302 0 3.808-.795 1.507-.794 1.507-2.273 0-1.315-1.15-2.11-1.151-.794-4.11-1.123l-2.356-.22q-5.424-.547-8.136-3.013t-2.712-6.3q0-3.178 1.589-5.315t4.41-3.233 6.438-1.096q5.808 0 9.37 2.548 3.56 2.548 3.725 7.37h-7.78q-.22-1.48-1.534-2.494-1.315-1.013-3.89-1.013-2.028 0-3.233.767t-1.205 2.082q0 1.26 1.04 1.918 1.042.657 3.398.931l2.355.22q5.534.602 8.603 3.067t3.068 6.63q0 3.013-1.644 5.232t-4.657 3.397-7.068 1.178m32.716-.547q-4.547 0-7.341-1.124-2.795-1.123-4.082-3.78-1.288-2.657-1.288-7.205V13.866h8.164v26.738q0 2.136 1.123 3.26t3.205 1.123h4.438v7.397Zm-17.258-23.998v-6.41h21.477v6.41Zm41.148 24.655q-3.835 0-6.767-1.315-2.93-1.315-4.876-3.534-1.945-2.219-2.959-4.986-1.013-2.767-1.013-5.67V36.44q0-3.014 1.013-5.78 1.014-2.768 2.932-4.96 1.917-2.19 4.794-3.478t6.547-1.288q4.822 0 8.137 2.164 3.314 2.164 5.068 5.644t1.753 7.588v2.959h-26.573v-4.986h21.258l-2.849 2.301q0-2.685-.767-4.602t-2.274-2.932-3.753-1.013q-2.301 0-3.89 1.04-1.589 1.042-2.41 3.042t-.822 4.903q0 2.685.767 4.685t2.41 3.096 4.274 1.095q2.41 0 3.945-.931 1.534-.932 2.082-2.301h8.054q-.657 3.013-2.575 5.37-1.918 2.355-4.822 3.67t-6.684 1.315M311.365 52v-8.876h-1.48v-9.643q0-2.301-1.095-3.452-1.096-1.15-3.507-1.15-1.205 0-3.177.054-1.973.055-4.055.165t-3.78.219V21.92q1.26-.11 2.958-.219 1.699-.11 3.507-.164t3.397-.055q4.602 0 7.753 1.315t4.794 3.972 1.643 6.822V52Zm-9.588.767q-3.233 0-5.67-1.15-2.439-1.151-3.809-3.315-1.37-2.165-1.37-5.178 0-3.287 1.699-5.397 1.698-2.11 4.767-3.123 3.068-1.013 7.068-1.013h6.41v4.876h-6.465q-2.301 0-3.534 1.123t-1.233 3.04q0 1.809 1.233 2.932t3.534 1.123q1.48 0 2.657-.52t1.945-1.78.877-3.507l2.082 2.191q-.274 3.123-1.507 5.26t-3.397 3.287-5.287 1.151m36.385.219q-3.178 0-5.78-1.15-2.603-1.151-4.52-3.206-1.918-2.054-2.932-4.849-1.013-2.794-1.013-6.026v-1.26q0-3.233.959-6.027.958-2.795 2.794-4.904 1.835-2.11 4.41-3.288t5.753-1.178q3.617 0 6.247 1.562 2.63 1.561 4.109 4.602t1.643 7.48l-2.3-2.138v-20.6h8.82V52h-6.958V39.563h1.206q-.165 4.273-1.781 7.287-1.616 3.013-4.356 4.575-2.74 1.561-6.3 1.561m2.192-7.342q2.027 0 3.698-.904t2.685-2.657 1.013-4.219v-2.027q0-2.41-1.04-4.055-1.042-1.643-2.74-2.52-1.699-.876-3.671-.876-2.192 0-3.917 1.123-1.726 1.123-2.713 3.068-.986 1.945-.986 4.52 0 2.63.986 4.548.987 1.917 2.74 2.958t3.945 1.041"/></g></svg>