<svg xmlns="http://www.w3.org/2000/svg" aria-labelledby="rs-wordmark-tagline-title rs-wordmark-tagline-desc" role="img" viewBox="0 0 340 96"><title id="rs-wordmark-tagline-title">Rulestead — Runtime decisions, made clear.</title><desc id="rs-wordmark-tagline-desc">Rulestead wordmark lockup with the tagline &quot;Runtime decisions, made clear.&quot; set below it in letter-spaced Inter Medium, Moss Grey.</desc><g transform="translate(0 -14)"><path fill="none" stroke="#3A6F8F" stroke-linecap="round" stroke-linejoin="round" stroke-width="3.2" d="m33.4 55 7.44 10.66Q44 70.2 49.5 70.2H311q7 0 7-7V29m0 0h12.5M318 40.5h12.5M318 52h12.5"/><g fill="#183247"><path d="M5.248 64V16.896h10.496V64ZM33.6 64 19.904 43.904h11.52L45.76 64ZM12.928 49.024v-8.256h11.52q2.304 0 4-.928t2.624-2.624T32 33.28t-.928-3.936-2.624-2.624-4-.928h-11.52v-8.896h10.688q5.824 0 10.112 1.76t6.592 5.216 2.304 8.704V33.6q0 5.184-2.336 8.608t-6.592 5.12-10.08 1.696Z"/><path d="M62.272 65.088q-6.08 0-9.344-3.936T49.664 49.28V28.928h10.24v20.864q0 2.816 1.6 4.48t4.288 1.664q2.752 0 4.48-1.728T72 49.536V28.928h10.24V64h-8.128V49.216h.704q0 5.312-1.376 8.864t-4.064 5.28-6.656 1.728Z"/><path d="M91.2 64V17.28h10.304V64Zm-4.16-39.168V17.28h14.464v7.552Z"/><path d="M126.016 65.216q-4.48 0-7.904-1.536t-5.696-4.128-3.456-5.824-1.184-6.624v-1.28q0-3.52 1.184-6.752t3.424-5.792 5.6-4.064 7.648-1.504q5.632 0 9.504 2.528t5.92 6.592 2.048 8.864v3.456h-31.04v-5.824h24.832l-3.328 2.688q0-3.136-.896-5.376t-2.656-3.424-4.384-1.184q-2.688 0-4.544 1.216t-2.816 3.552-.96 5.728q0 3.136.896 5.472t2.816 3.616 4.992 1.28q2.816 0 4.608-1.088t2.432-2.688h9.408q-.768 3.52-3.008 6.272t-5.632 4.288-7.808 1.536"/><path d="M162.24 65.088q-7.488 0-11.712-3.072t-4.48-8.64h9.088q.256 1.664 2.016 2.976t5.28 1.312q2.688 0 4.448-.928t1.76-2.656q0-1.536-1.344-2.464t-4.8-1.312l-2.752-.256q-6.336-.64-9.504-3.52t-3.168-7.36q0-3.712 1.856-6.208t5.152-3.776 7.52-1.28q6.784 0 10.944 2.976t4.352 8.608h-9.088q-.256-1.728-1.792-2.912t-4.544-1.184q-2.368 0-3.776.896t-1.408 2.432q0 1.472 1.216 2.24t3.968 1.088l2.752.256q6.464.704 10.048 3.584t3.584 7.744q0 3.52-1.92 6.112t-5.44 3.968-8.256 1.376"/><path d="M199.488 64.448q-5.312 0-8.576-1.312t-4.768-4.416-1.504-8.416V19.456h9.536v31.232q0 2.496 1.312 3.808t3.744 1.312h5.184v8.64Zm-20.16-28.032v-7.488h25.088v7.488Z"/><path d="M226.432 65.216q-4.48 0-7.904-1.536t-5.696-4.128-3.456-5.824-1.184-6.624v-1.28q0-3.52 1.184-6.752t3.424-5.792 5.6-4.064 7.648-1.504q5.632 0 9.504 2.528t5.92 6.592 2.048 8.864v3.456h-31.04v-5.824h24.832l-3.328 2.688q0-3.136-.896-5.376t-2.656-3.424-4.384-1.184q-2.688 0-4.544 1.216t-2.816 3.552-.96 5.728q0 3.136.896 5.472t2.816 3.616 4.992 1.28q2.816 0 4.608-1.088t2.432-2.688h9.408q-.768 3.52-3.008 6.272t-5.632 4.288-7.808 1.536"/><path d="M270.528 64V53.632H268.8V42.368q0-2.688-1.28-4.032t-4.096-1.344q-1.408 0-3.712.064t-4.736.192-4.416.256v-8.64q1.472-.128 3.456-.256t4.096-.192 3.968-.064q5.376 0 9.056 1.536t5.6 4.64 1.92 7.968V64Zm-11.2.896q-3.776 0-6.624-1.344t-4.448-3.872-1.6-6.048q0-3.84 1.984-6.304t5.568-3.648 8.256-1.184h7.488v5.696H262.4q-2.688 0-4.128 1.312t-1.44 3.552q0 2.112 1.44 3.424t4.128 1.312q1.728 0 3.104-.608t2.272-2.08 1.024-4.096l2.432 2.56q-.32 3.648-1.76 6.144t-3.968 3.84-6.176 1.344"/><path d="M300.864 65.152q-3.712 0-6.752-1.344t-5.28-3.744-3.424-5.664-1.184-7.04v-1.472q0-3.776 1.12-7.04t3.264-5.728 5.152-3.84 6.72-1.376q4.224 0 7.296 1.824t4.8 5.376 1.92 8.736l-2.688-2.496V17.28h10.304V64h-8.128V49.472h1.408q-.192 4.992-2.08 8.512t-5.088 5.344-7.36 1.824m2.56-8.576q2.368 0 4.32-1.056t3.136-3.104 1.184-4.928V45.12q0-2.816-1.216-4.736t-3.2-2.944-4.288-1.024q-2.56 0-4.576 1.312t-3.168 3.584-1.152 5.28q0 3.072 1.152 5.312t3.2 3.456 4.608 1.216"/></g><circle cx="330.5" cy="29" r="3.2" fill="#9b5931"/><circle cx="330.5" cy="40.5" r="3.2" fill="#C4CCD1"/><circle cx="330.5" cy="52" r="3.2" fill="#C4CCD1"/></g><g fill="#606d66"><path d="M5.248 89v-7.276h2.607q.84 0 1.402.29.561.291.84.809t.278 1.187q0 .673-.28 1.179-.282.505-.843.784-.562.278-1.407.278H5.887v-.952h1.851q.537 0 .867-.154t.486-.442.156-.693q0-.41-.156-.708-.157-.298-.489-.462-.332-.163-.874-.163H6.361V89Zm4.136 0L7.62 85.714h1.235L10.648 89Z"/><path d="M14.004 89.068q-.557 0-.976-.234-.42-.234-.652-.693-.232-.46-.232-1.133V83.54h1.074v3.335q0 .59.31.923.31.332.842.332.367 0 .652-.159t.452-.464.166-.735V83.54h1.074V89H15.69l-.005-1.338h.102q-.239.742-.698 1.074t-1.084.332"/><path d="M19.734 85.767V89H18.66v-5.46h1.025l.01 1.339h-.112q.239-.733.693-1.07t1.099-.337q.556 0 .971.235t.65.69.234 1.136V89h-1.074v-3.335q0-.59-.308-.923-.307-.332-.844-.332-.362 0-.65.159-.288.158-.454.461t-.166.737"/><path d="M27.51 83.54v.875h-2.96v-.874Zm-2.163-1.298h1.074v5.283q0 .327.139.481.14.154.457.154.083 0 .22-.02.136-.019.234-.038l.19.859q-.17.059-.366.085t-.386.027q-.742 0-1.152-.383t-.41-1.077Z"/><path d="M29.079 89v-5.46h1.074V89Zm.542-6.294q-.279 0-.476-.186-.198-.185-.198-.449 0-.269.198-.454.197-.186.476-.186t.478.186.2.454q0 .264-.2.45-.2.185-.478.185"/><path d="M32.099 89v-5.46h1.02l.03 1.266h-.083q.117-.464.36-.762.245-.298.572-.447t.684-.149q.596 0 .962.369.366.368.493 1.028H36q.108-.45.371-.762.264-.313.638-.474.373-.161.798-.161.483 0 .876.21t.623.625.23 1.035V89H38.46v-3.574q0-.547-.305-.791-.305-.245-.72-.245-.337 0-.581.142t-.376.393-.132.579V89h-1.06v-3.643q0-.44-.28-.703-.281-.264-.716-.264-.298 0-.554.14-.256.139-.41.41t-.154.666V89Z"/><path d="M43.833 89.112q-.805 0-1.391-.346-.586-.347-.901-.977t-.315-1.48q0-.84.31-1.48.31-.639.876-.998t1.329-.359q.468 0 .903.154.434.154.781.481t.55.847.202 1.263v.38h-4.35v-.8h3.798l-.503.263q0-.503-.156-.886t-.461-.598-.764-.215q-.455 0-.777.22t-.49.579-.17.783v.547q0 .562.194.95.193.388.54.586.346.198.805.198.303 0 .547-.086t.422-.259.271-.427l1.011.24q-.132.42-.442.742t-.771.5-1.048.178"/><path d="M53.051 89.107q-.664 0-1.182-.339-.517-.34-.81-.972t-.293-1.51q0-.89.298-1.52.297-.63.815-.962t1.172-.332q.508 0 .818.169.31.168.486.393t.268.396h.059v-2.706h1.074V89h-1.045v-.855h-.088q-.092.176-.273.4-.18.225-.493.394-.313.168-.806.168m.234-.913q.46 0 .774-.244.315-.244.479-.676t.163-.999q0-.571-.16-.993-.162-.423-.477-.66-.315-.236-.779-.236-.473 0-.788.249t-.474.676-.159.964q0 .542.162.977.16.434.478.688t.781.254"/><path d="M60.055 89.112q-.805 0-1.391-.346-.586-.347-.901-.977t-.315-1.48q0-.84.31-1.48.31-.639.876-.998t1.329-.359q.468 0 .903.154.434.154.781.481t.55.847.202 1.263v.38h-4.35v-.8h3.798l-.503.263q0-.503-.156-.886t-.461-.598-.764-.215q-.455 0-.777.22t-.49.579-.17.783v.547q0 .562.194.95.193.388.54.586.346.198.805.198.303 0 .547-.086t.422-.259.271-.427l1.011.24q-.132.42-.442.742t-.771.5-1.048.178"/><path d="M66.37 89.112q-.77 0-1.342-.351-.571-.352-.889-.987-.317-.634-.317-1.474 0-.85.317-1.487.318-.637.889-.989t1.343-.352q.425 0 .796.11.37.11.671.318.3.207.508.508.207.3.31.676l-1.02.244q-.054-.21-.167-.383-.112-.174-.27-.3-.16-.128-.367-.196t-.456-.068q-.494 0-.818.26-.325.262-.484.697t-.158.962q0 .522.158.954.159.432.484.691.324.26.818.26.253 0 .463-.072.21-.07.376-.2t.279-.312q.112-.184.16-.403l1.017.244q-.098.386-.308.69-.21.306-.51.52-.3.216-.677.328-.376.112-.805.112"/><path d="M70.348 89v-5.46h1.074V89Zm.542-6.294q-.279 0-.476-.186-.198-.185-.198-.449 0-.269.198-.454.197-.186.476-.186t.478.186.2.454q0 .264-.2.45-.2.185-.478.185"/><path d="M75.325 89.112q-.591 0-1.053-.17-.461-.172-.756-.506-.296-.334-.393-.818l1.01-.21q.113.425.42.63.308.205.782.205.517 0 .825-.217t.307-.52q0-.264-.188-.435t-.578-.254l-.918-.21q-.762-.17-1.133-.547-.371-.376-.371-.962 0-.488.273-.854.274-.366.747-.569.474-.203 1.094-.203.591 0 1.01.171t.682.479.374.713l-.962.21q-.103-.288-.357-.506-.254-.217-.737-.217-.444 0-.742.2t-.298.508q0 .274.198.442.197.168.647.271l.879.195q.756.171 1.123.537.366.367.366.938 0 .498-.286.881-.285.384-.79.601t-1.175.217"/><path d="M79.253 89v-5.46h1.074V89Zm.542-6.294q-.279 0-.476-.186-.198-.185-.198-.449 0-.269.198-.454.197-.186.476-.186t.478.186.2.454q0 .264-.2.45-.2.185-.478.185"/><path d="M84.567 89.112q-.767 0-1.34-.351-.574-.352-.892-.987-.317-.634-.317-1.474 0-.85.317-1.487.318-.637.891-.989.574-.352 1.34-.352.772 0 1.346.352t.891.989.318 1.487q0 .84-.318 1.474-.317.635-.891.987-.574.351-1.345.351m0-.908q.498 0 .822-.261.325-.261.484-.694t.159-.95q0-.522-.16-.959-.158-.437-.483-.698t-.822-.261q-.493 0-.816.26-.322.262-.48.697-.16.434-.16.962 0 .517.16.95.158.432.48.693.323.261.816.261"/><path d="M89.886 85.767V89h-1.074v-5.46h1.025l.01 1.339h-.112q.239-.733.693-1.07t1.099-.337q.556 0 .971.235t.65.69.234 1.136V89h-1.074v-3.335q0-.59-.308-.923-.307-.332-.844-.332-.362 0-.65.159-.288.158-.454.461t-.166.737"/><path d="M97.286 89.112q-.591 0-1.053-.17-.461-.172-.756-.506-.296-.334-.393-.818l1.01-.21q.113.425.42.63.308.205.782.205.517 0 .825-.217t.307-.52q0-.264-.188-.435t-.578-.254l-.918-.21q-.762-.17-1.133-.547-.371-.376-.371-.962 0-.488.273-.854.274-.366.747-.569.474-.203 1.094-.203.591 0 1.01.171t.682.479.374.713l-.962.21q-.103-.288-.357-.506-.254-.217-.737-.217-.444 0-.742.2t-.298.508q0 .274.198.442.197.168.647.271l.879.195q.756.171 1.123.537.366.367.366.938 0 .498-.286.881-.285.384-.79.601t-1.175.217"/><path d="m101.101 90.812.43-2.857h1.157l-.805 2.857Z"/><path d="M107.912 89v-5.46h1.02l.03 1.266h-.083q.117-.464.36-.762.245-.298.572-.447t.684-.149q.596 0 .962.369.366.368.493 1.028h-.137q.108-.45.371-.762.264-.313.638-.474.373-.161.798-.161.483 0 .876.21t.623.625.23 1.035V89h-1.075v-3.574q0-.547-.305-.791-.305-.245-.72-.245-.337 0-.581.142t-.376.393-.132.579V89h-1.06v-3.643q0-.44-.28-.703-.281-.264-.716-.264-.298 0-.554.14-.256.139-.41.41t-.154.666V89Z"/><path d="M118.822 89.122q-.518 0-.937-.193t-.665-.564q-.244-.37-.244-.908 0-.464.179-.762.178-.298.483-.473.305-.176.679-.264.373-.088.759-.132l.786-.095q.303-.037.447-.122.144-.086.144-.276v-.03q0-.307-.117-.517t-.35-.325-.578-.114q-.356 0-.613.11-.256.11-.415.28t-.237.357l-1.01-.264q.185-.488.532-.786.346-.298.796-.435.449-.137.927-.137.333 0 .704.079.37.078.698.283t.532.576.205.967V89h-1.04v-.747h-.054q-.107.21-.317.41t-.53.33-.764.13m.24-.864q.439 0 .751-.171.313-.171.479-.454t.166-.6v-.7q-.059.06-.222.106-.164.046-.374.083-.21.036-.405.06l-.322.04q-.303.039-.555.132-.251.093-.4.264-.149.17-.149.454 0 .258.134.434.135.176.364.264.23.088.532.088"/><path d="M125.504 89.107q-.664 0-1.182-.339-.517-.34-.81-.972t-.293-1.51q0-.89.298-1.52.297-.63.815-.962t1.172-.332q.508 0 .818.169.31.168.486.393t.268.396h.059v-2.706h1.074V89h-1.045v-.855h-.088q-.092.176-.273.4-.18.225-.493.394-.313.168-.806.168m.234-.913q.46 0 .774-.244.315-.244.479-.676t.163-.999q0-.571-.16-.993-.162-.423-.477-.66-.315-.236-.779-.236-.473 0-.788.249t-.474.676-.159.964q0 .542.162.977.16.434.478.688t.781.254"/><path d="M132.507 89.112q-.805 0-1.391-.346-.586-.347-.901-.977t-.315-1.48q0-.84.31-1.48.31-.639.876-.998t1.329-.359q.468 0 .903.154.434.154.781.481t.55.847.202 1.263v.38h-4.35v-.8h3.798l-.503.263q0-.503-.156-.886t-.461-.598-.764-.215q-.455 0-.777.22t-.49.579-.17.783v.547q0 .562.194.95.193.388.54.586.346.198.805.198.303 0 .547-.086t.422-.259.271-.427l1.011.24q-.132.42-.442.742t-.771.5-1.048.178"/><path d="M141.989 89.112q-.772 0-1.343-.351-.571-.352-.889-.987-.317-.634-.317-1.474 0-.85.317-1.487.318-.637.889-.989t1.343-.352q.425 0 .796.11.37.11.671.318.3.207.508.508.207.3.31.676l-1.02.244q-.054-.21-.167-.383-.112-.174-.27-.3-.16-.128-.367-.196t-.456-.068q-.494 0-.818.26-.325.262-.484.697t-.158.962q0 .522.158.954.159.432.484.691.324.26.818.26.253 0 .463-.072.21-.07.376-.2t.279-.312q.112-.184.16-.403l1.017.244q-.098.386-.308.69-.21.306-.51.52-.3.216-.677.328-.376.112-.805.112"/><path d="M147.04 81.724V89h-1.074v-7.276Z"/><path d="M151.338 89.112q-.805 0-1.391-.346-.586-.347-.901-.977t-.315-1.48q0-.84.31-1.48.31-.639.876-.998t1.329-.359q.468 0 .903.154.434.154.781.481t.55.847.202 1.263v.38h-4.35v-.8h3.798l-.503.263q0-.503-.156-.886t-.461-.598-.764-.215q-.455 0-.777.22t-.49.579-.17.783v.547q0 .562.194.95.193.388.54.586.346.198.805.198.303 0 .547-.086t.422-.259.271-.427l1.011.24q-.132.42-.442.742t-.771.5-1.048.178"/><path d="M156.887 89.122q-.518 0-.937-.193t-.665-.564q-.244-.37-.244-.908 0-.464.179-.762.178-.298.483-.473.305-.176.679-.264.373-.088.759-.132l.786-.095q.303-.037.447-.122.144-.086.144-.276v-.03q0-.307-.117-.517t-.35-.325-.578-.114q-.356 0-.613.11-.256.11-.415.28t-.237.357l-1.01-.264q.185-.488.532-.786.346-.298.796-.435.449-.137.927-.137.333 0 .704.079.37.078.698.283t.532.576q.205.371.205.967V89h-1.04v-.747h-.054q-.107.21-.317.41t-.53.33-.764.13m.24-.864q.439 0 .751-.171.313-.171.479-.454t.166-.6v-.7q-.059.06-.222.106-.164.046-.374.083-.21.036-.405.06l-.322.04q-.303.039-.555.132-.251.093-.4.264-.149.17-.149.454 0 .258.134.434.135.176.364.264.23.088.532.088"/><path d="M161.538 89v-5.46h1.04v.88h.058q.152-.45.528-.703.376-.254.854-.254.103 0 .235.007.131.007.22.022v1.025q-.06-.02-.225-.039-.166-.02-.337-.02-.371 0-.67.157-.297.156-.463.432t-.166.637V89Z"/><path d="M166.7 89.073q-.302 0-.512-.21t-.21-.508q0-.302.21-.51.21-.207.513-.207.297 0 .507.207.21.208.21.51 0 .298-.21.508t-.507.21"/></g></svg>